<?xml version="1.0" encoding="UTF-8"?>
<svg id="Layer_2" data-name="Layer 2" xmlns="http://www.w3.org/2000/svg" viewBox="0 0 1105.91 106.63">
  <defs>
    <style>
      .cls-1 {
        fill: #ffb800;
      }
    </style>
  </defs>
  <g id="Layer_1-2" data-name="Layer 1">
    <path class="cls-1" d="M1100.49,15.23c-3.45-3.39-8.05-5.28-12.71-5.13-8.29.14-16.55.75-24.54,1.33l-1.35.1c-4.09.3-8.18.61-12.27.93l-3.19.24c-2.92.21-5.84.43-8.76.72l-16.13,1.65c-9.45.97-18.83,2.62-27.88,4.9-9.82,2.48-19.56,6.23-28.97,11.16l-1.53.81c-.99.54-1.99,1.08-3.01,1.54l-5.44,2.44c-2.87,1.15-5.07,1.95-7.13,2.59-2.38.75-5,1.34-7.99,1.81-2.46.25-4.86.37-7.36.39-1.93.03-4.02-.13-6.45-.42-3.41-.55-6.59-1.26-9.72-2.16-3.37-.98-6.81-2.35-9.84-3.61-5.74-2.53-11.29-5.41-16.95-8.81-2.65-1.59-5.27-3.21-7.83-4.88l-1.22-.8c-2.88-1.89-5.86-3.85-9.04-5.69-2.85-1.65-5.92-3.37-9.42-4.71-2.15-.82-4.37-1.49-6.81-2.06-2.78-.64-5.5-.78-7.49-.88-.22-.01-.44-.02-.68-.01-1.63.02-3.32.19-4.8.45-2.06.31-4.1.77-6.22,1.41-3.05.91-5.6,2.26-7.85,3.46l-1.17.62c-4.72,2.47-9.43,4.94-14.13,7.44-5.17,2.74-11.28,5.91-17.11,8.47-3.48,1.4-7.03,2.64-10.54,3.68-4.05,1.2-8.56,2.15-13.91,2.97-5.01.62-9.61.94-14.08.99-5.32.08-10.95-.59-15.64-1.18-6.41-.92-13.11-2.23-20.48-4.01-6.57-1.59-12.39-3.43-17.53-5.52-6.06-2.65-11.9-5.54-17.35-8.57-8.02-4.47-15.35-7.87-22.43-10.42-3.59-1.29-7.17-2.06-10.26-2.7-4.04-.82-8.28-1.21-12.65-1.13-4.64.07-9.03.99-12.72,1.88-4.67,1.13-8.74,3.04-12.2,4.74-7.56,3.74-14.02,8.62-20.26,13.34l-2.98,2.25c-3.1,2.31-6.13,4.73-9.16,7.14l-3.7,2.93c-3.23,2.48-6.29,4.83-9.46,6.93-3.14,2.08-6.63,3.98-10.01,5.5-1.68.67-3.37,1.29-5.11,1.84-1.62.52-3.49.92-6.06,1.31-.67.06-1.35.1-2.04.1-.22,0-.45,0-.68,0-1.28-.3-2.49-.65-3.67-1.08-6.41-3.21-12.69-7.13-18.49-11.5-3.07-2.44-5.84-4.82-8.49-7.29l-6.12-5.69c-1.74-1.62-3.4-3.31-5.07-5-3.56-3.6-7.23-7.32-11.68-10.63-3.22-2.4-6.16-4.22-9.24-5.72-2.33-1.14-4.65-1.87-6.4-2.38-.26-.07-.59-.15-.85-.21l-1.4-.3c-.27-.06-.53-.11-.8-.14l-3.37-.45c-.26-.03-.51-.06-.77-.07l-1.52-.1c-.13,0-.27-.02-.41-.02h-.9c-1.49-.01-2.99.11-4.47.35-2.67.34-4.99.95-7.1,1.57-4.3,1.25-8.17,2.94-12,4.61-2.29,1-4.55,2.06-6.81,3.12l-3.32,1.55c-1.79.82-3.57,1.65-5.27,2.59l-10.33,5.65c-1.35.72-2.69,1.45-4.01,2.28l-10.32,6.49c-1.5.93-3,1.86-4.47,2.84l-15.41,10.33c-10.88,7.28-21.59,14.23-32.77,19.09-2.73,1.11-5.21,2.03-7.61,2.82-2.38.79-5.09,1.41-8.75,2.01-1.25.14-2.5.25-3.76.32-1.53.09-3.23-.04-4.74-.18-2.43-.43-4.65-1.01-6.77-1.77-2.32-1.13-4.68-2.54-7.18-4.29-4.24-3.49-8.16-7.53-11.81-11.36-1.44-1.52-2.9-3.03-4.36-4.54l-1.91-1.98c-2.85-2.95-5.84-5.57-8.65-7.96-2.91-2.46-5.92-4.48-9.25-6.17-2.01-1.01-4-1.75-5.89-2.42-2.5-.88-4.84-1.08-6.55-1.23l-.76-.07c-.53-.06-1.06-.06-1.58-.03-1.43.08-2.86.24-4.28.48-.24.04-.48.09-.72.14-2.46.6-4.6,1.36-6.54,2.33-2.65,1.32-4.69,2.71-6.43,4.36-1.34,1.28-2.61,2.6-3.83,3.95-1.73,1.89-3.22,3.8-4.66,5.64l-6.25,7.85c-1.09,1.36-2.21,2.7-3.34,4.04l-1.99,2.39c-2.99,3.61-6.47,7.04-10.36,10.19-2.81,2.02-5.59,3.66-8.49,5.03-2.54.93-5.19,1.63-8.06,2.13-4,.4-8.14.35-12.63-.14-6.72-1.12-13.62-3.16-20.86-6.13-5.92-2.61-11.96-5.76-18.98-9.92-3.16-1.88-6.28-4-9.29-6.04l-.53-.36c-3.03-2.06-6.05-4.11-9.04-6.21l-1.46-1.03c-2.81-1.99-5.72-4.04-8.83-5.98-3.89-2.42-7.84-4.56-11.76-6.38-8.9-4.12-17.65-6.16-26.07-5.99-2.57.04-4.98.41-6.76.72-2.38.4-4.41.85-6.35,1.39-2.15.58-4,1.38-5.98,2.23-1.72.74-3.44,1.5-5.14,2.27-7.73,3.49-15.18,7.66-22.16,12.4-6.34,4.31-12.31,9.4-17.74,15.13-2.71,2.86-5.02,5.56-7.07,8.26-1.15,1.51-2.72,3.92-3.69,6.79l-.59,1.71c-.16.46-.29.93-.38,1.41l-.7,3.65c-.96,5.08.48,9.98,3.96,13.45,3.78,3.79,9.3,5.21,14.32,3.75l3.31-.95c2.49-.72,4.51-1.74,6.09-2.53,3.45-1.72,6.07-4.87,7.2-8.66.75-2.51.82-5.15.25-7.63,1.87-1.77,3.91-3.54,6.13-5.31,6.56-4.94,14.12-9.3,22.29-12.86,1.88-.78,3.78-1.56,5.66-2.29,1.44-.55,3.11-.98,5.24-1.32,1.56-.13,3.02-.15,4.47-.07,1.07.19,2.12.42,3.21.7,1.5.38,3.16,1.03,5,1.77,3.39,1.54,6.63,3.47,10.45,5.89,2.64,1.66,5.23,3.61,7.97,5.66,1.46,1.1,2.93,2.19,4.41,3.26,4.32,3.1,8.65,6.19,13.06,9.15,5.01,3.38,10.11,6.3,13.98,8.46,9.52,5.33,19.54,9.56,29.79,12.59,8.19,2.41,16.5,3.64,24.51,3.64,3.56,0,7.06-.24,10.46-.73,6.06-.87,11.45-2.36,16.47-4.55,4.93-2.14,9.53-4.8,14.07-8.13,4.41-3.22,8.6-6.98,12.82-11.53,2-2.17,3.75-4.3,5.67-6.66,2.53-3.11,5-6.25,7.47-9.42l1.43-1.85c1.19-1.54,2.34-3.04,3.5-4.46,3.55,2.97,6.89,6.34,9.98,9.58l.76.8c4.66,4.86,9.49,9.89,14.91,14.51,2.87,2.45,5.86,4.45,8.42,6.09,3.91,2.51,7.87,4.2,11.25,5.53,4,1.57,8.08,2.32,11.51,2.84,4.33.67,8.74.86,13.49.58,3.71-.22,7.29-.85,10.64-1.47,4.69-.87,8.98-2.29,12.57-3.57,6.64-2.37,13.49-5.52,20.94-9.61,8.86-4.87,17.19-10.48,25.24-15.91l5.79-3.93c2.8-1.92,5.6-3.84,8.46-5.65l14.43-9.16,13.69-7.56,6.31-2.97c2.88-1.35,5.74-2.69,8.31-3.82,2.51-.98,4.82-1.74,7.02-2.29.18,0,.4,0,.61.02.47.11.93.24,1.38.38,1.29.7,2.6,1.52,3.99,2.51,3.3,2.79,6.43,5.9,9.73,9.19,2.23,2.22,4.47,4.44,6.76,6.58,3.58,3.35,7.47,6.91,11.61,10.28,3.52,2.86,7.31,5.64,11.58,8.5,4.4,2.95,8.91,5.33,13.26,7.64,5.06,2.69,10.59,4.42,15.95,5.02,2.43.27,4.75.35,7.29.24,3-.13,5.8-.64,8.27-1.1l.46-.08c5.39-.99,10.29-2.87,13.97-4.4,4.64-1.94,9.2-4.32,13.92-7.27,5.51-3.42,10.42-7.37,15.18-11.18l17.67-13.89c4.9-3.75,9.58-6.67,14.29-8.91,1.96-.72,4.05-1.28,6.36-1.69,1.08-.1,2.16-.16,3.29-.18.65-.02,1.47.07,2.23.16,4,.7,7.73,1.75,11.08,3.07,3.7,1.62,7.29,3.35,10.66,5.14,1.38.73,2.74,1.5,4.1,2.27l2.54,1.43c2.18,1.21,4.42,2.31,6.66,3.41l.62.3c4.77,2.35,9.52,4.49,14.12,6.33,5.44,2.19,11.06,3.75,15.89,5.03,10.41,2.77,21.24,4.78,33.1,6.14,5.75.66,11.71.91,17.67.75,6-.16,11.77-.92,17.16-1.68,10.14-1.43,20.31-4.3,30.25-8.51,6.04-2.57,11.74-5.45,17.25-8.24,2.26-1.14,4.5-2.31,6.74-3.48,4.18-2.18,8.14-4.24,12.18-6.13.54-.17,1.08-.31,1.63-.45.95.21,1.88.48,2.8.8,4.28,2.17,8.4,4.98,12.75,7.95l2.51,1.7c6.07,4.11,12.46,7.89,19,11.26,6.22,3.2,12.9,6.03,20.42,8.67,7.59,2.67,16.26,4.27,25.77,4.77,7.21.38,15.04-.42,23.29-2.36,6.94-1.63,13.22-4.31,18.45-6.73l.71-.33c2.25-1.04,4.48-2.07,6.62-3.23l4.33-2.33c1.83-.98,3.91-1.88,5.67-2.64,8.73-3.5,18.49-5.89,31.52-7.74,4.25-.54,8.52-.91,12.79-1.27,1.93-.17,3.86-.33,5.79-.52,3.78-.36,7.57-.58,11.36-.81l4.78-.3c11.85-.78,21.77-1.37,31.84-1.37.3,0,.58-.02.9,0,4.75,0,9.24-1.87,12.64-5.26,3.42-3.41,5.31-7.92,5.31-12.7s-1.98-9.44-5.43-12.83Z"/>
  </g>
</svg>