<svg xmlns="http://www.w3.org/2000/svg" width="101" height="80" fill="none"><path d="M 51.592 44.515 C 51.592 42.506 52.637 42.118 54.571 43.2 C 56.988 44.55 59.408 45.896 61.83 47.238 C 61.954 46.115 62.936 45.164 65.066 45.641 C 67.048 46.115 69.264 46.606 69.264 46.606 C 69.264 46.606 68.072 43.918 67.536 42.726 C 66.554 40.553 67.491 39.509 68.436 39.207 C 68.436 39.207 67.083 38.29 66.189 37.669 C 64.283 36.333 64.726 35.035 66.588 34.242 C 69.13 33.164 72.291 31.736 72.291 31.736 C 71.281 31.155 70.106 29.497 71.425 27.591 C 72.717 25.689 74.671 23.059 74.671 23.059 C 74.671 23.059 71.229 23.076 68.934 23.059 C 66.859 23.018 66.344 21.373 66.365 20.185 C 66.365 20.185 62.977 22.582 60.555 24.216 C 58.522 25.583 56.66 24.247 56.969 21.892 C 57.453 18.201 57.889 14.122 57.889 14.122 C 56.625 14.963 54.471 14.942 53.516 12.876 L 50.459 6.266 C 50.459 6.266 48.844 9.823 47.425 12.876 C 46.481 14.946 44.313 14.963 43.062 14.122 C 43.062 14.122 43.488 18.204 43.976 21.892 C 44.292 24.247 42.427 25.586 40.4 24.216 C 37.978 22.585 34.58 20.185 34.58 20.185 C 34.601 21.373 34.103 23.018 32.021 23.059 C 29.719 23.076 26.281 23.059 26.281 23.059 C 26.281 23.059 28.242 25.693 29.548 27.591 C 30.85 29.497 29.668 31.155 28.682 31.736 C 28.682 31.736 31.832 33.164 34.367 34.242 C 36.233 35.039 36.686 36.336 34.749 37.669 C 33.869 38.294 32.488 39.207 32.488 39.207 C 33.461 39.509 34.392 40.549 33.409 42.726 C 32.887 43.918 31.681 46.606 31.681 46.606 C 31.681 46.606 33.904 46.115 35.893 45.641 C 38.019 45.164 39.016 46.115 39.136 47.238 C 39.136 47.238 42.829 45.185 46.391 43.2 C 48.315 42.118 49.353 42.506 49.366 44.515 L 49.366 49.483 C 49.366 52.354 48.851 55.492 47.759 57.171 C 34.127 55.681 22.856 44.783 22.828 30.4 C 22.811 15.595 35.202 3.585 50.466 3.585 C 65.729 3.585 78.1 15.598 78.1 30.4 C 78.1 44.237 67.34 55.547 53.547 57.04 L 53.547 60.67 C 69.759 59.2 82.435 46.201 82.435 30.397 C 82.432 13.607 68.113 0 50.466 0 C 32.818 0 18.517 13.607 18.517 30.397 C 18.517 45.185 29.596 57.476 44.299 60.23 C 46.779 60.707 48.356 61.075 49.658 62.675 C 51.235 59.801 51.592 53.72 51.592 50.29 L 51.592 44.512 Z M 18.52 79.605 L 18.52 71.183 L 22.622 71.183 C 24.817 71.193 25.793 72.106 25.875 73.284 C 25.903 73.796 25.772 74.345 25.405 74.771 C 25.03 75.197 24.855 75.337 24.168 75.67 L 27.277 79.615 L 24.975 79.615 L 22.23 76.13 L 20.368 76.13 L 20.368 79.609 L 18.52 79.609 Z M 20.368 75.008 L 21.207 75.008 C 23.488 75.008 23.955 74.637 23.955 73.531 C 23.955 72.426 22.952 72.271 21.464 72.271 L 20.368 72.271 Z M 0 79.615 L 3.696 71.183 L 5.936 71.183 L 9.588 79.612 L 7.304 79.612 L 6.321 77.346 L 2.422 77.346 L 1.433 79.615 Z M 2.913 76.24 L 5.84 76.24 L 4.384 72.889 Z M 12.216 79.612 L 12.216 71.183 L 14.192 71.183 L 14.192 79.612 Z M 41.427 79.324 C 40.489 79.694 39.304 79.88 37.933 79.88 C 36.26 79.876 34.962 79.478 34.031 78.682 C 33.103 77.892 32.636 76.797 32.639 75.389 C 32.639 73.954 33.12 72.848 34.058 72.076 C 35.003 71.31 36.346 70.929 38.091 70.929 C 39.204 70.932 40.307 71.042 41.407 71.262 L 41.407 72.652 C 40.16 72.282 38.995 72.096 38.15 72.096 C 37.078 72.096 36.247 72.371 35.659 72.941 C 35.072 73.504 34.78 74.318 34.776 75.361 C 34.776 76.388 35.082 77.188 35.714 77.765 C 36.339 78.342 37.209 78.637 38.325 78.637 C 39.321 78.637 40.448 78.431 41.42 78.005 L 41.42 79.32 Z M 43.839 79.615 L 47.535 71.183 L 49.782 71.183 L 53.434 79.612 L 51.142 79.612 L 50.163 77.346 L 46.274 77.346 L 45.278 79.615 L 43.846 79.615 Z M 46.759 76.24 L 49.679 76.24 L 48.229 72.889 Z M 68.227 79.615 L 71.916 71.183 L 74.156 71.183 L 77.808 79.612 L 75.52 79.612 L 74.544 77.346 L 70.642 77.346 L 69.652 79.615 Z M 71.136 76.24 L 74.06 76.24 L 72.607 72.889 L 71.14 76.24 Z M 91.357 79.615 L 95.053 71.183 L 97.293 71.183 L 100.945 79.612 L 98.654 79.612 L 97.675 77.346 L 93.782 77.346 L 92.786 79.615 L 91.353 79.615 Z M 94.274 76.24 L 97.194 76.24 L 95.74 72.889 Z M 56.241 79.612 L 56.241 71.183 L 58.518 71.183 L 63.795 77.195 L 63.795 71.183 L 65.403 71.183 L 65.403 79.612 L 63.335 79.612 L 57.845 73.315 L 57.845 79.612 L 56.244 79.612 Z M 80.584 79.612 L 80.584 71.183 L 84.672 71.183 C 86.139 71.186 87.265 71.54 88.042 72.237 C 88.815 72.93 89.203 73.933 89.199 75.238 C 89.199 76.628 88.777 77.706 87.952 78.476 C 87.125 79.241 85.963 79.619 84.476 79.612 Z M 82.566 78.407 L 84.022 78.407 C 85.056 78.417 85.829 78.16 86.334 77.652 C 86.843 77.143 87.097 76.367 87.1 75.33 C 87.107 74.527 86.901 73.854 86.499 73.318 C 86.218 72.951 85.888 72.694 85.486 72.556 C 85.091 72.415 84.517 72.34 83.761 72.34 L 82.569 72.34 L 82.569 78.407 Z" fill="rgb(255,252,240)"></path></svg>
