<svg xmlns="http://www.w3.org/2000/svg" width="139" height="80" fill="none"><path d="M 103.353 46.133 C 102.622 42.593 101.226 39.666 99.211 36.999 C 95.082 31.534 88.394 28.08 79.34 28.08 C 65.267 28.08 56.614 37.665 54.052 47.768 C 51.75 40.644 45.591 35.837 39.086 33.808 C 43.983 30.229 46.547 25.106 46.547 19.261 C 46.547 13.834 44.294 8.895 40.524 5.68 C 34.992 0.963 27.452 0 18.161 0 L 0 0 L 0 78.647 C 5.145 78.647 10.435 78.623 15.59 78.647 C 20.178 78.669 24.657 78.641 28.835 78.474 C 42.059 77.943 51.11 71.267 54.007 61.242 C 55.001 65.7 56.914 69.331 59.413 72.089 C 64.504 77.711 71.889 79.907 79.323 79.907 C 88.476 79.907 95.095 77.244 99.615 73.164 L 93.145 65.537 C 89.89 68 85.702 69.45 81.003 69.45 C 71.783 69.422 67.719 63.571 67.356 57.947 L 103.353 57.947 L 103.353 78.645 L 116.836 78.645 L 116.836 0.392 L 103.353 0.392 L 103.353 46.131 Z M 13.855 10.625 L 17.601 10.625 C 21.22 10.623 24.077 11.014 26.133 11.816 C 30.195 13.396 32.128 16.637 32.128 20.683 C 32.132 24.106 30.826 29.483 23.649 30.953 C 22.45 31.198 20.72 31.334 18.275 31.334 L 13.855 31.334 Z M 29.099 67.137 C 27.411 67.441 25.346 67.51 23.671 67.51 L 13.855 67.51 L 13.855 41.851 L 22.638 41.851 C 25.409 41.851 28.546 42.164 30.344 42.636 C 36.505 44.258 40.046 48.689 40.046 54.556 C 40.046 60.423 36.786 65.747 29.099 67.137 Z M 67.602 48.169 C 68.791 42.439 73.013 38.318 79.236 38.318 C 85.46 38.318 89.611 42.012 90.683 48.169 Z M 125.837 0.392 L 139.091 0.392 L 139.091 78.647 L 125.837 78.647 Z" fill="currentColor"></path></svg>
