<svg xmlns="http://www.w3.org/2000/svg" width="197" height="80" fill="none"><g transform="translate(0.008 -0.029)"><path d="M 14.639 59.286 C 14.382 58.829 14.068 58.429 13.897 57.971 C 13.24 56.171 13.497 54.371 14.268 52.657 C 15.41 50.171 17.323 48.371 19.55 46.886 C 21.634 45.514 23.946 44.629 26.288 43.829 C 28.315 43.143 30.256 42.314 31.998 41.029 C 34.539 39.171 35.338 36.257 34.653 33.8 C 34.025 31.514 32.312 30.257 30.113 29.8 C 25.231 28.8 20.949 30.057 17.523 33.743 C 15.181 36.257 13.954 39.371 13.154 42.686 C 12.212 46.6 12.098 50.571 12.269 54.543 C 12.469 59.086 13.069 63.6 13.897 68.086 L 13.897 68.457 L 1.934 68.457 C 1.42 68.457 1.249 68.286 1.22 67.829 C 0.906 64.657 0.449 61.486 0.221 58.286 C 0.021 55.457 -0.036 52.571 0.021 49.743 C 0.164 44.457 1.02 39.286 3.133 34.371 C 5.417 29.057 8.957 24.886 14.154 22.2 C 16.666 20.914 19.321 20.114 22.119 19.657 C 24.318 19.314 26.545 19.171 28.772 19.257 C 33.054 19.429 37.137 20.286 40.706 22.8 C 44.132 25.2 46.159 28.514 46.701 32.657 C 47.215 36.543 46.559 40.2 44.189 43.429 C 42.333 46 39.792 47.714 36.909 48.857 C 35.224 49.543 33.425 49.971 31.655 50.514 C 31.484 50.571 31.313 50.629 31.141 50.657 L 31.141 50.8 C 31.313 50.829 31.455 50.886 31.627 50.914 C 35.51 51.629 38.993 53.314 42.162 55.629 C 44.817 57.6 47.387 59.686 49.985 61.714 C 53.268 64.286 56.751 66.6 60.72 68 C 63.118 68.857 65.573 69.371 68.114 69.543 C 73.539 69.943 78.764 69.2 83.732 66.914 C 88.357 64.8 92.097 61.629 94.866 57.343 C 94.981 57.171 95.095 57.029 95.238 56.829 C 96.265 57.429 96.951 58.314 97.465 59.286 C 98.806 61.857 98.778 64.457 97.722 67.114 C 96.608 69.886 94.752 72.114 92.44 73.971 C 88.7 77 84.36 78.714 79.706 79.686 C 76.08 80.457 72.397 80.629 68.685 80.486 C 59.721 80.143 51.698 77.229 44.703 71.629 C 41.876 69.371 39.193 66.914 36.48 64.514 C 33.939 62.286 31.427 60.057 28.4 58.457 C 25.859 57.114 23.147 56.371 20.235 56.514 C 18.636 56.6 17.066 56.886 15.81 57.971 C 15.41 58.314 15.096 58.743 14.668 59.229 Z M 165.587 68.514 L 154.366 68.514 C 153.938 68.514 153.71 68.371 153.51 68 C 151.654 64.6 149.798 61.2 147.942 57.771 C 147.714 57.371 147.485 57.229 147.057 57.229 C 145.772 57.257 144.488 57.257 143.203 57.229 C 142.718 57.229 142.632 57.4 142.632 57.829 L 142.632 67.8 C 142.632 68.457 142.632 68.457 141.975 68.457 L 133.867 68.457 C 133.41 68.457 133.267 68.343 133.267 67.857 L 133.267 34.514 C 133.267 34.057 133.381 33.914 133.867 33.914 C 138.521 33.914 143.146 33.857 147.8 33.971 C 151.254 34.057 154.68 34.571 157.849 36.086 C 160.333 37.257 162.303 38.971 163.188 41.657 C 164.759 46.371 163.36 51.686 158.278 54.543 C 157.45 55 157.393 55.343 157.878 56.143 C 160.362 60.057 162.817 64 165.301 67.914 C 165.387 68.057 165.472 68.2 165.615 68.457 Z M 147.229 42.571 L 143.089 42.571 C 142.66 42.571 142.546 42.714 142.546 43.114 L 142.546 48.543 C 142.546 48.971 142.66 49.114 143.117 49.114 C 145.63 49.114 148.142 49.057 150.655 49.114 C 151.825 49.143 152.71 48.714 153.424 47.857 C 154.309 46.829 154.509 45.657 153.966 44.429 C 153.424 43.229 152.453 42.571 151.083 42.571 Z M 102.204 51.257 L 102.204 34.686 C 102.204 34 102.204 33.971 102.889 33.971 L 129.613 33.971 C 130.269 33.971 130.298 33.971 130.298 34.629 L 130.298 41.457 C 130.298 42.114 130.298 42.114 129.641 42.114 L 112.225 42.114 C 111.769 42.114 111.54 42.343 111.54 42.8 L 111.54 46.257 C 111.54 46.714 111.654 46.857 112.14 46.857 L 127.843 46.857 C 128.785 46.857 128.699 46.771 128.699 47.686 L 128.699 54.371 C 128.699 54.886 128.585 55.029 128.071 55.029 L 112.225 55.029 C 111.74 55.029 111.54 55.143 111.569 55.657 C 111.597 57.029 111.597 58.4 111.569 59.771 C 111.569 60.257 111.711 60.371 112.168 60.371 L 129.898 60.371 C 130.384 60.371 130.641 60.629 130.641 61.114 L 130.641 67.914 C 130.641 68.371 130.555 68.543 130.041 68.543 L 102.861 68.543 C 102.347 68.543 102.261 68.343 102.261 67.886 L 102.261 51.257 Z M 194.765 45.229 C 193.652 44.657 192.681 44.057 191.625 43.6 C 189.198 42.543 186.629 41.914 183.973 41.714 C 182.06 41.571 180.176 41.571 178.292 41.943 C 177.664 42.057 177.064 42.286 176.522 42.629 C 175.608 43.171 175.579 44.371 176.522 44.857 C 177.606 45.371 178.777 45.743 179.919 46.029 C 182.489 46.657 185.087 47.114 187.628 47.8 C 188.97 48.171 190.312 48.743 191.568 49.371 C 194.252 50.714 195.908 52.857 196.25 55.886 C 196.593 58.686 196.164 61.343 194.48 63.686 C 192.995 65.771 190.94 67.029 188.599 67.857 C 186.457 68.6 184.259 68.914 182.003 69 C 176.921 69.2 172.011 68.429 167.185 66.857 C 166.814 66.743 166.672 66.571 166.672 66.143 L 166.672 57.029 C 166.814 57.086 166.957 57.114 167.071 57.2 C 170.155 59.086 173.495 60.2 177.093 60.6 C 179.576 60.886 182.089 60.943 184.573 60.429 C 185.001 60.343 185.401 60.171 185.772 59.943 C 186.629 59.429 186.743 58.314 185.972 57.686 C 185.601 57.371 185.144 57.086 184.659 56.971 C 182.603 56.429 180.547 55.886 178.492 55.457 C 176.008 54.943 173.552 54.429 171.268 53.257 C 168.413 51.771 166.757 49.457 166.415 46.229 C 166.215 44.229 166.272 42.286 167.071 40.429 C 168.128 37.943 170.041 36.314 172.467 35.2 C 174.466 34.286 176.579 33.857 178.749 33.629 C 181.061 33.371 183.402 33.4 185.715 33.629 C 188.599 33.943 191.396 34.514 194.08 35.657 C 194.537 35.857 194.737 36.114 194.737 36.629 C 194.708 39.286 194.737 41.971 194.737 44.629 L 194.737 45.257 Z M 73.768 15.229 C 72.625 14.457 71.398 14 69.999 13.714 C 70.513 13.514 70.941 13.371 71.369 13.2 C 74.738 11.8 75.88 8.743 75.166 5.657 C 74.681 3.6 73.225 2.343 71.398 1.514 C 69.171 0.486 66.801 0.114 64.374 0.086 C 60.206 0.029 56.038 0.029 51.869 0.029 C 51.327 0.029 51.241 0.2 51.241 0.686 L 51.241 27.771 C 51.241 28.429 51.241 28.429 51.898 28.429 C 55.295 28.429 58.693 28.486 62.062 28.429 C 64.003 28.4 65.945 28.286 67.858 28.029 C 70.056 27.743 72.14 27.029 73.939 25.629 C 77.194 23.114 77.365 17.629 73.768 15.2 Z M 57.95 10.114 L 57.95 7.229 C 57.95 6.886 58.036 6.743 58.407 6.743 L 66.144 6.743 C 67.258 6.743 67.858 7.486 67.858 8.686 C 67.858 9.857 67.229 10.543 66.144 10.571 L 58.436 10.571 C 58.065 10.571 57.922 10.457 57.95 10.086 Z M 67.829 19.543 C 67.772 20.486 67.144 21.2 66.23 21.229 C 64.917 21.257 63.603 21.229 62.29 21.229 L 58.436 21.229 C 58.065 21.229 57.922 21.143 57.95 20.743 L 57.95 18.057 C 57.95 17.4 57.95 17.371 58.607 17.371 L 65.174 17.371 C 65.602 17.371 66.002 17.343 66.43 17.371 C 67.429 17.514 67.886 18.257 67.829 19.486 Z" fill="rgb(255,252,240)"></path><path d="M 99.891 34.029 C 99.292 35.514 98.721 36.914 98.15 38.314 C 95.923 43.714 93.753 49.114 91.469 54.486 C 90.984 55.657 90.127 56.714 89.271 57.657 C 85.702 61.714 81.276 64.257 75.966 65.286 C 75.481 65.371 75.366 65.2 75.195 64.829 C 71.798 56.543 68.4 48.229 65.002 39.943 C 64.26 38.143 63.518 36.371 62.804 34.571 L 62.604 33.971 L 72.454 33.971 C 72.911 33.971 73.111 34.114 73.254 34.543 C 75.766 41.514 78.307 48.486 80.82 55.457 C 80.848 55.543 80.877 55.657 80.934 55.743 C 81.019 55.886 81.134 55.971 81.219 56.114 C 81.305 56 81.448 55.886 81.505 55.743 C 82.333 53.514 83.132 51.286 83.932 49.057 C 85.702 44.2 87.443 39.371 89.213 34.514 C 89.328 34.2 89.413 34 89.842 34 L 99.463 34 C 99.577 34 99.692 34 99.891 34.057 Z M 78.878 14.229 L 78.878 0.714 C 78.878 0.057 78.878 0.057 79.535 0.057 L 101.29 0.057 C 101.804 0.057 101.947 0.2 101.947 0.714 L 101.947 6.171 C 101.947 6.657 101.776 6.8 101.319 6.8 L 87.243 6.8 C 86.758 6.8 86.53 7.029 86.53 7.514 L 86.53 9.943 C 86.53 10.4 86.758 10.629 87.215 10.629 L 99.52 10.629 C 100.263 10.629 100.634 11 100.634 11.714 L 100.634 16.686 C 100.634 17.343 100.634 17.343 99.977 17.343 L 87.158 17.343 C 86.672 17.343 86.501 17.457 86.53 17.943 C 86.558 19 86.558 20.029 86.53 21.086 C 86.53 21.6 86.644 21.743 87.186 21.743 L 101.205 21.743 C 102.318 21.743 102.147 21.6 102.175 22.714 L 102.175 27.886 C 102.175 28.314 102.061 28.486 101.604 28.486 L 79.421 28.486 C 78.935 28.486 78.878 28.286 78.878 27.886 L 78.878 14.257 Z M 117.679 0.029 L 129.927 0.029 C 130.412 0.029 130.612 0.143 130.583 0.657 C 130.555 2.486 130.583 4.314 130.583 6.114 C 130.583 6.6 130.441 6.743 129.955 6.743 L 122.304 6.743 C 121.647 6.743 121.647 6.743 121.647 7.4 L 121.647 27.6 C 121.647 28.143 121.39 28.4 120.848 28.429 L 114.367 28.429 C 113.853 28.429 113.71 28.286 113.71 27.771 L 113.71 7.457 C 113.71 6.971 113.453 6.743 112.968 6.743 L 105.43 6.743 C 104.945 6.743 104.774 6.629 104.802 6.114 C 104.831 4.286 104.831 2.429 104.802 0.6 C 104.802 0.086 104.973 0 105.43 0 L 117.679 0 Z M 60.234 63.514 C 59.635 63.2 59.121 62.971 58.607 62.686 C 55.923 61.2 53.525 59.314 51.184 57.343 C 51.033 57.157 50.952 56.925 50.955 56.686 L 50.955 34.714 C 50.955 34.229 51.184 34 51.669 33.971 L 59.721 33.971 C 60.206 33.971 60.32 34.114 60.32 34.571 L 60.32 62.886 C 60.32 63.057 60.32 63.2 60.263 63.514 Z" fill="rgb(255,252,240)"></path></g></svg>
