<svg xmlns="http://www.w3.org/2000/svg" width="91" height="80" fill="none"><g><path d="M 43.349 32.372 L 41.915 32.372 C 41.998 32.372 41.584 32.4 41.584 32.731 L 41.584 35.903 L 43.735 35.903 L 43.735 32.745 C 43.735 32.414 43.432 32.372 43.363 32.372 Z M 61.26 32.372 L 59.826 32.372 C 59.908 32.372 59.495 32.4 59.495 32.731 L 59.495 35.903 L 61.646 35.903 L 61.646 32.745 C 61.646 32.414 61.342 32.372 61.273 32.372 Z M 50.574 32.4 L 48.864 32.4 L 48.864 38.634 L 50.574 38.634 C 50.877 38.634 51.001 38.386 51.001 38.207 L 51.001 32.841 C 51.001 32.662 51.001 32.414 50.574 32.414 Z M 47.996 45.31 L 46.3 45.31 L 46.3 48.083 L 48.065 48.083 C 48.258 48.083 48.437 47.834 48.437 47.655 L 48.437 45.724 C 48.437 45.545 48.161 45.31 47.982 45.31 Z M 28.748 32.372 L 27.314 32.372 C 27.397 32.372 26.983 32.4 26.983 32.731 L 26.983 35.903 L 29.134 35.903 L 29.134 32.745 C 29.134 32.414 28.83 32.372 28.762 32.372 Z" fill="rgb(255,252,240)"></path><path d="M 85.843 16.979 L 58.778 16.979 L 53.028 21.517 L 55.289 25.49 L 47.637 24.234 L 47.637 26.552 L 43.308 26.552 L 43.308 24.234 L 35.683 25.503 L 37.917 21.545 L 32.167 16.979 L 4.964 16.979 C 3.943 16.979 3.282 17.862 3.282 18.759 C 3.282 19.09 3.378 19.448 3.585 19.752 L 44.107 76.234 C 44.452 76.717 44.99 76.952 45.541 76.952 C 46.093 76.952 46.631 76.717 46.989 76.248 L 87.277 19.628 C 87.443 19.366 87.525 19.062 87.525 18.745 C 87.525 17.903 86.919 16.966 85.843 16.966 Z M 24.115 32.4 L 22.116 32.4 C 21.785 32.4 21.73 32.634 21.73 32.759 L 21.73 38.331 C 21.73 38.331 21.964 38.634 22.088 38.634 L 24.115 38.634 L 24.115 40.193 L 21.316 40.193 C 20.503 40.193 19.827 39.49 19.827 38.69 L 19.827 32.221 C 19.827 31.407 20.558 30.841 21.399 30.841 L 24.115 30.841 Z M 31.009 40.179 L 29.12 40.179 L 29.12 37.462 L 26.969 37.462 L 26.969 40.179 L 25.08 40.179 L 25.08 32.386 C 25.08 31.531 25.825 30.828 26.693 30.828 L 29.465 30.828 C 30.43 30.828 31.009 31.503 31.009 32.372 L 31.009 40.193 Z M 34.249 32.828 L 34.249 40.193 L 32.36 40.193 L 32.36 31.655 C 32.36 31.007 31.96 30.841 31.933 30.841 L 33.904 30.841 C 34.277 31.214 34.235 31.586 34.263 31.752 C 34.29 31.172 34.911 30.841 35.352 30.841 L 36.841 30.841 C 38.344 30.841 38.303 32.483 38.303 32.221 L 38.303 40.193 L 36.414 40.193 L 36.414 32.883 C 36.414 32.455 36.055 32.4 35.959 32.4 L 34.621 32.4 C 34.29 32.4 34.263 32.828 34.263 32.828 Z M 40.288 45.31 L 38.427 45.31 L 38.427 53.103 L 36.538 53.103 L 36.538 45.31 L 34.649 45.31 L 34.649 43.752 L 40.288 43.752 Z M 42.991 53.103 L 41.074 53.103 L 41.074 43.752 L 42.991 43.752 Z M 43.721 40.179 L 43.721 37.462 L 41.57 37.462 L 41.57 40.179 L 39.682 40.179 L 39.682 32.386 C 39.682 31.531 40.426 30.828 41.295 30.828 L 44.066 30.828 C 45.031 30.828 45.61 31.503 45.61 32.372 L 45.61 40.193 L 43.721 40.193 Z M 48.726 53.103 C 48.726 53.103 48.451 52.938 48.451 52.179 L 48.451 50.248 C 48.451 49.917 48.147 49.71 47.982 49.71 L 46.313 49.683 L 46.313 53.103 L 44.425 53.103 L 44.425 43.752 L 48.657 43.752 C 49.54 43.752 50.353 44.303 50.353 45.214 L 50.353 47.586 C 50.353 48.4 49.926 49.021 49.14 49.131 C 49.898 49.214 50.353 49.669 50.353 50.207 L 50.353 52.262 C 50.395 53.007 50.877 53.117 50.822 53.117 L 48.726 53.117 Z M 46.962 40.179 L 46.962 30.828 L 51.194 30.828 C 52.077 30.828 52.904 31.324 52.904 32.248 L 52.904 38.621 C 52.904 39.503 52.077 40.179 51.208 40.179 L 46.948 40.179 Z M 56.006 45.31 L 54.007 45.31 C 53.676 45.31 53.621 45.545 53.621 45.669 L 53.621 47.49 L 55.951 47.49 L 55.951 49.09 L 53.621 49.09 L 53.621 51.241 C 53.621 51.434 53.731 51.559 53.98 51.559 L 56.006 51.559 L 56.006 53.117 L 53.207 53.117 C 52.394 53.117 51.718 52.414 51.718 51.614 L 51.718 45.145 C 51.718 44.331 52.449 43.766 53.29 43.766 L 56.006 43.766 L 56.006 45.324 Z M 56.144 40.179 L 54.228 40.179 L 54.228 30.828 L 56.144 30.828 Z M 63.521 40.179 L 61.632 40.179 L 61.632 37.462 L 59.481 37.462 L 59.481 40.179 L 57.592 40.179 L 57.592 32.386 C 57.592 31.531 58.337 30.828 59.205 30.828 L 61.99 30.828 C 62.955 30.828 63.521 31.503 63.521 32.372 L 63.521 40.193 Z M 70.801 40.179 L 68.912 40.179 L 68.912 32.869 C 68.912 32.441 68.553 32.386 68.457 32.386 L 67.119 32.386 C 66.788 32.386 66.761 32.814 66.761 32.814 L 66.761 40.179 L 64.872 40.179 L 64.872 31.641 C 64.872 30.993 64.472 30.828 64.445 30.828 L 66.416 30.828 C 66.788 31.2 66.747 31.572 66.775 31.738 C 66.802 31.159 67.423 30.828 67.864 30.828 L 69.353 30.828 C 70.856 30.828 70.815 32.469 70.815 32.207 L 70.815 40.179 Z" fill="rgb(255,252,240)"></path><path d="M 88.725 20.579 L 48.382 77.241 C 47.678 78.179 46.644 78.69 45.514 78.69 C 44.383 78.69 43.322 78.152 42.673 77.241 L 2.151 20.759 C 1.737 20.138 1.544 19.462 1.544 18.759 C 1.544 16.814 3.075 15.241 4.95 15.241 L 33.408 15.241 L 31.919 16.772 L 37.917 21.531 L 35.683 25.49 L 43.308 24.221 L 43.308 26.538 L 47.637 26.538 L 47.637 24.221 L 55.289 25.476 L 53.028 21.503 L 59.026 16.772 L 57.551 15.228 L 85.857 15.228 C 87.994 15.228 89.277 17.021 89.277 18.745 C 89.277 19.407 89.097 20.041 88.753 20.566 M 35.352 14.441 L 34.208 11.393 L 36.731 12.041 C 37.145 12.179 37.517 11.89 37.682 11.572 L 38.427 10.179 L 41.088 13.297 C 41.639 13.862 42.081 13.614 41.929 12.759 L 40.495 6.055 L 42.453 7.214 C 42.825 7.421 43.308 7.352 43.487 6.993 L 45.486 3.2 L 47.485 6.979 C 47.665 7.338 48.12 7.448 48.492 7.228 L 50.477 6.041 L 49.03 12.786 C 48.878 13.641 49.347 13.876 49.912 13.31 L 52.546 10.207 L 53.318 11.655 C 53.483 11.959 53.855 12.152 54.283 12.014 L 56.765 11.421 L 55.579 14.51 C 55.4 14.966 55.496 15.338 55.786 15.559 L 56.806 16.621 L 51.677 20.676 C 51.25 20.924 51.263 21.462 51.512 21.862 L 52.435 23.49 L 46.658 22.538 C 46.258 22.469 46.162 22.593 46.148 22.952 L 46.148 25.034 L 44.824 25.034 L 44.824 22.952 C 44.824 22.634 44.755 22.469 44.356 22.538 L 38.537 23.503 L 39.447 21.876 C 39.695 21.476 39.695 20.938 39.268 20.69 L 34.153 16.634 L 35.187 15.572 C 35.49 15.352 35.545 14.897 35.366 14.441 M 85.843 13.697 L 57.482 13.697 L 59.164 9.31 L 54.352 10.469 L 52.808 7.559 L 51.291 9.352 L 52.656 2.993 L 48.409 5.531 L 45.472 0 L 42.549 5.545 L 38.317 3.034 L 39.654 9.338 L 38.137 7.559 L 36.579 10.483 L 31.781 9.241 L 33.477 13.724 L 4.95 13.724 C 2.22 13.724 0 16 0 18.786 C 0 19.807 0.29 20.759 0.896 21.669 L 41.419 78.166 C 42.356 79.476 43.887 80.248 45.514 80.248 C 47.141 80.248 48.63 79.49 49.65 78.152 L 90.021 21.448 C 90.531 20.676 90.793 19.752 90.793 18.786 C 90.793 16.303 88.946 13.738 85.843 13.738" fill="rgb(255,252,240)"></path></g></svg>
