<svg xmlns="http://www.w3.org/2000/svg" width="255" height="80" fill="none"><path d="M 132.742 20.221 L 125.089 20.221 L 120.775 27.232 L 128.422 27.232 Z M 110.43 80.085 C 104.332 75.791 96.906 73.897 90.162 74.169 C 83.342 74.441 80.281 79.545 80.281 79.545 C 77.201 74.169 71.116 70.868 61.714 70.95 C 46.534 71.13 31.465 78.157 19.532 78.157 C 7.6 78.157 -0.268 70.953 0.006 58.15 C 0.489 35.709 19.409 15.485 33.557 6.375 C 41.687 1.142 48.497 -0.408 52.954 0.089 C 56.201 0.452 60.114 4.209 57.646 9.749 C 54.03 17.869 49.028 17.189 49.207 13.312 C 49.312 10.795 50.987 9.208 52.24 8.338 C 53.042 7.782 54.453 7.624 55.191 7.611 C 55.904 7.004 56.45 2.564 50.624 4.032 C 44.799 5.496 37.789 11.232 31.102 18.621 C 24.414 26.011 14.016 40.025 11.443 54.716 C 10.25 61.534 11.052 73.954 27.163 73.812 C 40.822 73.692 60.989 64.674 79.511 64.835 C 86.7 64.898 92.958 66.836 97.837 69.856 C 102.644 72.832 108.394 77.145 110.43 80.089 Z M 114.804 39.393 L 117.606 39.393 C 117.606 39.393 103.575 59.725 95.641 58.805 C 91.213 58.292 92.523 52.813 92.523 52.813 C 92.523 52.813 86.293 60.111 80.606 58.653 C 75.424 57.325 78.76 48.692 78.76 48.692 C 78.169 48.933 66.963 61.603 59.092 58.564 C 50.852 55.383 55.122 44.781 56.69 41.594 C 58.016 38.906 59.483 36.285 59.483 36.285 C 59.483 36.285 58.218 36.648 57.435 36.828 C 56.652 37.009 55.456 37.24 55.456 37.24 C 55.456 37.24 51.559 43.589 49.179 46.76 C 46.799 49.929 36.675 60.828 30.71 58.656 C 24.746 56.484 26.213 48.126 29.565 41.48 C 34.999 30.704 47.895 17.461 55.658 19.443 C 63.504 21.448 57.015 34.207 57.015 34.207 C 57.015 34.207 58.577 34.406 62.317 31.851 C 67.711 28.168 74.805 18.258 82.506 19.415 C 86.122 19.959 89.49 23.677 84.885 30.735 C 83.408 32.999 80.937 35.029 79.041 33.031 C 77.867 31.794 78.889 29.518 80.126 27.959 C 81.875 25.755 84.286 26.058 84.286 26.058 C 84.286 26.058 85.551 23.13 82.326 23.191 C 79.703 23.241 73.079 29.36 69.339 35.538 C 65.906 41.214 60.714 50.881 65.934 52.987 C 70.725 54.919 79.823 44.082 84.043 38.406 C 88.262 32.73 97.856 19.855 105.917 19.326 C 108.687 19.146 110.344 21.682 110.344 21.682 L 111.278 20.202 L 119.323 20.202 C 119.323 20.202 104.152 45.6 102.963 47.523 C 102.028 49.031 100.794 52.414 104.228 50.511 C 107.662 48.607 114.804 39.402 114.804 39.402 Z M 52.322 36.816 C 52.183 36.765 50.154 36.183 48.175 34.915 C 46.197 33.647 45.281 31.766 45.212 31.633 C 45.143 31.504 45.061 31.605 44.982 31.712 C 44.903 31.823 44.48 32.367 41.608 36.591 C 38.736 40.819 34.479 49.47 38.471 50.95 C 41.024 51.896 45.31 47.402 47.629 44.43 C 49.782 41.67 52.344 37.426 52.455 37.176 C 52.565 36.923 52.464 36.863 52.325 36.813 Z M 55.507 23.317 C 53.399 21.717 48.021 25.461 47.992 29.284 C 47.964 33.205 52.849 34.324 53.477 34.353 C 53.477 34.353 54.03 34.501 54.247 34.036 C 54.383 33.745 55.049 32.519 55.791 30.571 C 56.532 28.623 57.473 24.806 55.504 23.314 Z M 96.543 44.465 C 99.797 39.997 108.766 24.338 108.766 24.338 C 108.766 24.338 108.618 23.238 107.57 23.191 C 106.327 23.134 104.272 23.551 100.144 28.715 C 96.016 33.878 92.845 37.995 90.516 42.261 C 87.969 46.925 86.855 50.217 88.316 51.105 C 88.729 51.355 89.351 51.387 89.853 51.263 C 90.812 51.026 92.056 50.068 93.769 48.085 C 94.571 47.159 95.48 45.923 96.54 44.462 Z M 245.63 7.636 C 239.978 11.282 232.138 14.58 224.618 13.853 C 222.715 15.832 220.676 18.112 218.628 20.607 C 231.684 23.187 243.105 15.083 249.184 8.18 C 252.977 3.874 254.849 0.028 254.849 0.028 C 254.849 0.028 251.229 4.025 245.63 7.636 Z M 223.251 67.058 C 222.166 68.8 220.941 72.12 224.517 70.046 C 228.872 67.523 235.073 58.09 235.073 58.09 L 237.876 58.09 C 237.876 58.09 234.18 63.949 229.358 69.3 C 224.943 74.201 219.562 78.653 215.769 78.213 C 211.341 77.701 212.723 71.874 212.723 71.874 C 212.723 71.874 206.367 78.637 201.996 78.153 C 196.079 77.499 197.877 70.163 197.877 70.163 C 197.877 70.163 191.19 78.416 186.63 78.153 C 179.475 77.742 181.268 68.993 183.256 62.877 C 184.323 59.598 185.307 57.012 185.307 57.012 C 185.307 57.012 184.594 57.202 183.076 57.423 C 182.281 57.54 180.826 57.616 180.826 57.616 C 180.826 57.616 177.853 62.887 175.473 66.055 C 173.094 69.224 162.966 80.13 157.002 77.951 C 151.498 75.937 153.309 67.481 156.519 60.762 C 161.199 50.969 174.356 36.892 181.949 38.735 C 189.82 40.645 182.132 55.042 182.132 55.042 C 182.132 55.042 182.142 55.096 182.218 55.127 C 182.376 55.191 182.783 55.228 183.736 55.048 C 185.247 54.76 186.614 54.185 186.614 54.185 C 186.614 54.185 194.523 37.578 203.258 26.71 C 211.997 15.842 229.427 -2.868 236.282 1.654 C 237.961 2.76 237.194 6.596 234.944 11.251 C 233.95 11.567 232.915 11.842 231.854 12.066 C 233.363 9.322 234.363 7.01 234.657 5.398 C 235.682 -0.218 222.604 11.617 213.263 24.357 C 203.921 37.097 198.319 48.629 198.319 48.629 C 198.319 48.629 200.203 47.56 203.142 45.189 C 206.209 42.713 210.426 38.827 215.014 34.081 C 218.094 30.89 221.717 26.877 225.11 22.394 C 226.123 22.343 227.114 22.239 228.083 22.087 C 224.299 27.194 220.319 31.858 216.943 35.289 C 213.228 39.064 209.185 43.137 205.673 46.096 C 200.096 50.798 195.791 53.464 195.791 53.464 C 195.791 53.464 187.602 69.97 192.055 71.032 C 194.668 71.655 199.828 63.687 199.828 63.687 C 199.828 63.687 206.556 53.382 210.615 48.753 C 216.154 42.435 220.919 38.792 225.681 38.71 C 228.459 38.662 230.1 41.628 230.1 41.628 L 231.406 39.605 L 239.451 39.605 C 239.451 39.605 224.444 65.138 223.248 67.058 Z M 178.03 57.006 C 177.888 56.955 176.146 56.158 174.334 54.643 C 172.529 53.138 171.617 51.402 171.544 51.27 C 171.475 51.14 171.393 51.241 171.314 51.349 C 171.235 51.459 170.907 51.744 168.035 55.972 C 165.163 60.199 160.77 68.914 164.762 70.394 C 167.315 71.339 171.563 66.865 173.886 63.889 C 176.038 61.129 178.052 57.619 178.162 57.366 C 178.273 57.116 178.172 57.053 178.033 57.002 Z M 182.091 49.875 C 182.833 47.927 183.774 44.111 181.804 42.618 C 179.696 41.018 174.318 44.762 174.29 48.585 C 174.262 52.506 178.08 54.277 179.002 54.526 C 179.526 54.669 179.706 54.647 179.958 54.226 C 180.122 53.951 181.35 51.82 182.091 49.875 Z M 228.272 44.487 C 228.436 44.199 228.512 43.943 228.512 43.943 C 228.512 43.943 228.364 42.843 227.316 42.795 C 226.073 42.738 224.375 42.975 219.934 47.908 C 215.513 52.819 212.821 57.085 210.495 61.35 C 207.948 66.014 206.926 69.486 208.387 70.378 C 208.8 70.628 209.422 70.659 209.924 70.536 C 210.921 70.292 212.035 69.372 213.749 67.39 C 214.55 66.463 215.437 65.145 216.501 63.687 C 219.423 59.674 226.805 47.032 228.272 44.487 Z M 245.63 7.636 C 239.978 11.282 232.138 14.58 224.618 13.853 C 222.715 15.832 220.676 18.112 218.628 20.607 C 231.684 23.187 243.105 15.083 249.184 8.18 C 252.977 3.874 254.849 0.028 254.849 0.028 C 254.849 0.028 251.229 4.025 245.63 7.636 Z M 208.949 17.119 C 202.772 13.951 198.266 10.077 193.563 7.665 C 189.079 5.36 186.182 4.405 182.565 4.889 C 181.965 4.968 181.069 5.262 181.069 5.262 C 181.069 5.262 182.94 11.64 175.524 22.368 C 168.013 33.236 161.19 33.179 159.255 30.179 C 157.223 27.026 159.836 20.598 164.216 14.884 C 168.799 8.904 176.849 3.937 176.849 3.937 C 176.849 3.937 174.277 2.368 167.972 5.948 C 161.827 9.436 151.22 17.742 141.418 31.75 C 131.615 45.758 129.656 53.467 128.242 59.535 C 126.825 65.603 128.122 72.095 134.841 72.095 C 141.56 72.095 149.364 61.831 151.564 58.258 C 155.657 51.614 158.327 41.423 152.754 42.827 C 150.005 43.519 147.783 46.574 146.382 49.505 C 144.943 52.519 144.362 55.402 144.362 55.402 C 144.362 55.402 142.043 56.234 138.925 58.571 C 135.806 60.911 133.771 63.143 133.771 63.143 C 133.771 63.143 133.787 58.299 137.643 50.447 C 141.5 42.599 148.582 39.007 152.587 38.675 C 156.203 38.375 160.902 41.451 156.926 52.803 C 152.95 64.155 141.2 77.919 128.844 78.1 C 117.448 78.267 109.978 63.687 125.831 38.251 C 143.368 10.109 163.976 1.477 170.664 0.509 C 177.351 -0.455 179.523 2.501 179.523 2.501 C 179.523 2.501 185.127 -0.095 192.238 0.389 C 200.405 0.942 206.727 6.732 215.055 10.795 C 212.878 12.911 210.807 15.08 208.949 17.123 Z M 178.528 6.096 C 178.528 6.096 173.75 8.003 168.196 14.138 C 162.622 20.297 159.41 27.184 161.805 29.009 C 162.72 29.708 164.838 29.825 168.694 26.353 C 171.702 23.646 174.76 20.104 176.834 15.032 C 179.321 8.952 178.525 6.169 178.525 6.096 Z" fill="rgb(255,252,240)"></path></svg>
