<svg xmlns="http://www.w3.org/2000/svg" width="565" height="80" fill="none"><path d="M 119.686 2.165 L 134.894 2.165 L 134.894 78.259 L 119.686 78.259 Z M 193.324 78.212 L 178.116 78.212 L 178.116 70.824 C 174.773 75.718 168.747 79.059 161.449 79.059 C 149.584 79.059 141.58 71.341 141.58 59.435 L 141.58 24.047 L 156.882 24.047 L 156.882 55.482 C 156.882 61.412 160.507 65.506 166.251 65.506 C 173.926 65.506 178.116 59.153 178.116 47.859 L 178.116 24.047 L 193.324 24.047 Z M 201.093 2.165 L 216.301 2.165 L 216.301 78.259 L 201.093 78.259 Z M 275.39 78.212 L 260.23 78.212 L 260.23 70.824 C 256.887 75.718 250.86 79.059 243.562 79.059 C 231.697 79.059 223.693 71.341 223.693 59.435 L 223.693 24.047 L 238.995 24.047 L 238.995 55.482 C 238.995 61.412 242.62 65.506 248.365 65.506 C 256.039 65.506 260.23 59.153 260.23 47.859 L 260.23 24.047 L 275.438 24.047 L 275.438 78.212 Z M 282.594 2.165 L 297.802 2.165 L 297.802 78.259 L 282.594 78.259 Z M 329.395 23.247 C 348.323 23.247 356.562 37.553 356.562 50.071 C 356.562 52.565 356.374 55.2 356.374 55.2 L 317.954 55.2 C 319.225 62.4 323.886 66.353 330.855 66.353 C 336.081 66.353 339.895 64.047 341.025 60.188 L 356.233 60.188 C 354.585 72.094 344.368 79.059 330.337 79.059 C 311.927 79.059 302.887 64.659 302.887 51.106 C 302.887 37.553 310.985 23.247 329.442 23.247 Z M 340.13 44.188 C 339.706 38.541 335.987 34.588 329.395 34.588 C 323.651 34.588 319.696 37.929 318.236 44.188 L 340.083 44.188 Z M 361.977 24.047 L 377.185 24.047 L 377.185 31.576 C 380.292 26.541 385.424 23.247 392.487 23.247 C 401.009 23.247 406.329 26.682 409.013 32.941 C 411.838 27.812 418.288 23.247 426.999 23.247 C 438.77 23.247 446.444 30.965 446.444 41.412 L 446.444 78.259 L 431.142 78.259 L 431.142 45.929 C 431.142 39.859 427.799 36.094 422.196 36.094 C 415.558 36.094 411.791 41.741 411.791 50.588 L 411.791 78.259 L 396.583 78.259 L 396.583 45.929 C 396.583 39.859 393.24 36.094 387.731 36.094 C 380.951 36.094 377.138 41.835 377.138 50.588 L 377.138 78.259 L 361.93 78.259 L 361.93 24.094 Z M 451.576 51.106 C 451.576 35.153 463.253 23.247 479.544 23.247 C 495.835 23.247 507.653 35.059 507.653 51.106 C 507.653 67.153 495.788 79.059 479.544 79.059 C 463.3 79.059 451.576 67.2 451.576 51.106 Z M 492.162 51.106 C 492.162 42.353 486.936 36.282 479.544 36.282 C 472.152 36.282 466.973 42.447 466.973 51.106 C 466.973 59.765 471.869 66.024 479.544 66.024 C 487.218 66.024 492.162 59.859 492.162 51.106 Z M 513.302 24.047 L 528.51 24.047 L 528.51 31.482 C 531.853 26.588 537.88 23.247 545.178 23.247 C 557.043 23.247 565.047 30.965 565.047 42.871 L 565.047 78.259 L 549.745 78.259 L 549.745 46.824 C 549.745 40.847 546.12 36.8 540.375 36.8 C 532.654 36.8 528.51 43.153 528.51 54.447 L 528.51 78.259 L 513.302 78.259 L 513.302 24.094 Z M 39.88 0 C 17.845 0 0 17.929 0 40 C 0 62.071 17.845 80 39.88 80 C 61.915 80 79.759 62.071 79.759 40 C 79.759 17.929 61.915 0 39.88 0 Z M 55.464 65.788 C 48.202 65.762 42.328 59.871 42.328 52.612 C 42.328 50.024 43.27 47.718 44.164 45.318 C 44.776 43.624 45.435 41.929 46.048 40.235 C 47.507 36.235 48.92 32.141 49.579 27.906 C 50.097 24.565 50.05 20.471 47.507 17.929 C 45.577 15.953 42.563 15.529 39.88 15.529 C 37.196 15.529 34.183 16 32.252 17.929 C 29.71 20.518 29.663 24.565 30.18 27.906 C 30.84 32.141 32.252 36.235 33.712 40.235 C 34.324 41.929 34.983 43.624 35.595 45.318 C 36.49 47.718 37.431 49.976 37.431 52.612 C 37.431 59.859 31.593 65.788 24.342 65.788 C 18.975 65.788 14.172 62.494 12.148 57.506 C 15.585 60.706 20.999 60.518 24.201 57.035 C 24.389 56.847 24.53 56.659 24.672 56.471 C 26.508 54.118 26.885 50.965 26.131 48.094 C 25.284 44.988 23.4 42.494 21.894 39.576 C 17.044 31.247 17.233 24.988 17.233 24.988 C 17.233 24.094 17.28 23.2 17.421 22.306 L 17.703 20.894 C 17.845 20.471 17.986 20 18.127 19.576 C 18.739 17.976 19.728 16.518 21.046 15.341 C 22.408 14.151 23.971 13.211 25.66 12.565 C 26.602 12.188 27.544 11.906 28.485 11.671 C 29.003 11.529 29.521 11.435 29.992 11.294 C 30.51 11.2 31.028 11.106 31.593 11.012 C 32.158 10.918 32.723 10.871 33.241 10.776 C 34.418 10.635 35.595 10.541 36.725 10.494 C 37.337 10.494 37.949 10.494 38.561 10.447 L 42.61 10.447 C 44.918 10.541 47.178 10.776 49.438 11.2 C 50.473 11.388 51.462 11.624 52.451 11.953 C 52.922 12.094 53.393 12.235 53.816 12.424 C 54.711 12.753 55.558 13.129 56.359 13.6 C 57.112 14.024 57.818 14.541 58.478 15.106 C 59.466 15.953 60.267 16.941 60.926 18.071 C 61.397 18.824 61.726 19.671 61.962 20.518 C 62.364 21.99 62.57 23.509 62.574 25.035 C 62.574 25.035 62.762 31.294 57.913 39.624 C 56.406 42.494 54.523 44.988 53.675 48.094 C 52.875 50.918 53.298 54.118 55.135 56.471 C 58.054 60.188 63.421 60.847 67.141 57.976 C 67.329 57.835 67.518 57.694 67.706 57.506 C 65.693 62.479 60.879 65.749 55.511 65.788 Z" fill="currentColor"></path></svg>
