<svg xmlns="http://www.w3.org/2000/svg" width="404" height="80" fill="none"><path d="M 37.824 9.532 C 13.974 9.532 0 21.941 0 44.81 C 0 67.678 13.974 80.078 37.824 80.078 C 61.673 80.078 75.94 68.059 75.94 44.81 C 75.94 21.561 61.664 9.532 37.824 9.532 Z M 37.824 63.668 C 28.446 63.668 27.363 52.137 27.363 44.81 C 27.363 38.459 28.143 25.951 37.824 25.951 C 47.504 25.951 48.48 38.459 48.578 44.81 C 48.48 52.137 48.187 63.668 37.824 63.668 Z M 227.148 52.624 L 226.991 52.624 L 220.034 23.415 L 189.753 23.415 L 189.753 76.78 L 207.192 76.78 L 207.426 34.878 L 207.728 34.878 L 217.897 76.78 L 234.954 76.78 L 245.435 34.878 L 245.591 34.878 L 245.894 76.78 L 264.249 76.78 L 264.249 23.415 L 234.037 23.415 L 227.157 52.624 Z M 156.965 56.673 L 182.054 56.673 L 182.054 43.824 L 156.965 43.824 L 156.965 36.254 L 183.195 36.254 L 183.195 23.405 L 136.931 23.405 L 136.931 76.771 L 183.732 76.771 L 183.732 63.922 L 156.965 63.922 L 156.965 56.663 Z M 128.558 39.561 L 128.558 23.327 L 80.917 23.327 L 80.917 37.112 L 106.192 37.112 L 80 60.546 L 80 76.78 L 129.407 76.78 L 129.407 62.537 L 103.215 62.537 L 128.568 39.561 Z M 377.916 49.639 C 377.916 40.917 384.493 36.254 393.207 36.254 C 396.652 36.254 400.087 37.171 403.454 38.244 L 403.454 24.176 C 397.95 23.18 394.583 22.498 388.923 22.498 C 371.797 22.498 356.954 31.444 356.954 49.337 C 356.954 68.38 371.182 77.698 388.923 77.698 C 394.124 77.698 399.784 76.624 403.61 75.561 L 403.61 61.415 C 399.862 62.712 396.271 63.483 392.524 63.483 C 384.034 63.483 377.916 58.82 377.916 49.649 Z M 307.44 23.415 L 272.183 23.415 L 272.183 76.78 L 292.676 76.78 L 292.676 61.415 L 307.362 61.415 C 318.067 61.415 327.016 55.678 327.016 41.766 C 327.016 27.854 315.774 23.415 307.44 23.415 Z M 296.657 49.024 L 292.149 49.024 L 292.149 35.795 L 296.579 35.795 C 301.546 35.795 306.523 36.488 306.523 42.146 C 306.523 48.107 301.556 49.024 296.657 49.024 Z M 342.141 0 C 336.052 0 331.124 3.932 331.124 8.78 C 331.124 13.629 336.062 17.571 342.141 17.571 C 348.221 17.571 353.168 13.639 353.168 8.78 C 353.168 3.922 348.23 0 342.141 0 Z M 339.633 76.995 C 340.443 76.8 341.273 76.693 342.141 76.693 C 343.01 76.693 343.839 76.8 344.649 76.995 L 351.919 23.649 L 332.373 23.649 L 339.643 76.995 Z" fill="rgb(255,252,240)"></path></svg>
