<svg xmlns="http://www.w3.org/2000/svg" width="107" height="80" fill="none"><g><path d="M 106.2 0 L 106.2 62.241 L 98.175 59.382 C 96.729 58.753 96.294 57.447 96.776 55.659 L 100.662 40.782 L 87.634 42.982 C 85.988 43.294 84.895 42.718 84.389 41.335 L 82.12 35.065 L 71.578 47.429 C 69.956 49.365 67.616 48.853 68.192 45.641 L 73.166 18.9 L 65.429 23.182 C 64.088 23.906 62.624 23.735 61.878 22.476 L 53.1 5.712 L 44.323 22.476 C 43.576 23.735 42.112 23.906 40.772 23.182 L 33.029 18.9 L 38.003 45.641 C 38.596 48.853 36.239 49.359 34.622 47.429 L 24.075 35.065 L 21.806 41.335 C 21.3 42.718 20.212 43.294 18.56 42.982 L 5.532 40.782 L 9.43 55.659 C 9.912 57.447 9.477 58.753 8.019 59.382 L 0 62.241 L 0 0 Z M 3.627 72.153 L 4.045 72.153 C 5.456 72.141 5.95 71.318 5.95 70.388 C 5.95 69.459 5.456 68.629 4.045 68.612 L 3.627 68.612 Z M 3.627 74.924 L 3.627 79.406 L 0 79.406 L 0 65.882 L 4.445 65.882 C 6.655 65.882 9.383 66.847 9.383 70.4 C 9.383 73.953 7.178 74.924 4.68 74.924 Z M 25.363 65.882 L 9.824 65.882 L 9.824 79.406 L 16.814 79.406 L 16.814 76.335 L 13.457 76.335 L 13.457 73.888 L 16.573 73.888 L 16.573 71.012 L 13.457 71.012 L 13.457 68.753 L 19.336 68.753 L 19.336 79.406 L 22.964 79.406 L 22.964 68.753 L 25.363 68.753 Z M 69.873 72.782 L 72.407 79.4 L 76.064 79.4 L 76.064 65.882 L 72.572 65.882 L 72.572 72.476 L 70.032 65.882 L 66.381 65.882 L 66.381 79.4 L 69.873 79.4 Z M 29.466 72.182 L 29.854 72.182 C 31.148 72.171 31.683 71.276 31.683 70.306 C 31.683 69.335 31.153 68.441 29.854 68.429 L 29.466 68.429 Z M 29.46 73.435 L 29.46 79.406 L 25.815 79.406 L 25.815 65.882 L 30.225 65.882 C 33.246 65.871 35.469 67.312 35.21 70.524 C 35.116 71.729 34.299 72.918 32.835 73.424 L 35.575 79.406 L 31.894 79.406 L 29.454 73.435 Z" fill="rgb(255,252,240)"></path><path d="M 40.736 76.6 C 39.29 76.6 39.114 74.588 39.114 72.547 C 39.114 70.506 39.29 68.494 40.736 68.494 C 42.183 68.494 42.359 70.512 42.359 72.547 C 42.359 74.582 42.177 76.6 40.736 76.6 M 47.715 71.147 L 45.822 71.147 C 45.446 67.941 43.829 65.588 40.666 65.588 C 37.015 65.588 35.422 68.712 35.422 72.671 C 35.422 76.629 37.015 79.759 40.666 79.759 C 43.976 79.759 45.598 77.171 45.869 73.735 L 47.715 73.735 Z M 90.821 76.229 L 91.367 76.229 C 93.031 76.229 93.372 74.912 93.372 72.635 C 93.372 70.194 92.972 68.888 91.42 68.888 L 90.821 68.888 Z M 87.276 65.882 L 91.467 65.882 C 95.818 65.882 97.053 68.694 97.053 72.629 C 97.053 74.071 96.612 76.941 94.901 78.329 C 93.507 79.459 92.12 79.4 90.333 79.4 L 87.276 79.4 Z M 80.744 74.747 L 81.673 69.647 L 82.602 74.747 Z M 83.442 79.4 L 86.999 79.4 L 83.772 65.882 L 79.568 65.882 L 76.346 79.4 L 79.891 79.4 L 80.297 77.212 L 83.037 77.212 L 83.436 79.4 Z M 59.861 74.747 L 60.79 69.647 L 61.719 74.747 Z M 59.02 79.4 L 59.42 77.212 L 62.16 77.212 L 62.56 79.4 L 66.111 79.4 L 62.889 65.882 L 58.685 65.882 L 56.193 76.324 L 55.199 76.324 C 52.747 76.324 52.265 74.529 52.265 72.453 C 52.265 70.376 52.742 68.776 54.482 68.459 C 55.058 68.353 55.946 68.553 56.457 68.794 L 56.457 65.935 C 55.852 65.712 55.017 65.588 54.37 65.588 C 51.807 65.588 48.661 67.012 48.661 72.453 C 48.661 77.071 51.107 79.394 54.447 79.4 Z M 100.533 74.747 L 101.462 69.647 L 102.391 74.747 Z M 103.226 79.406 L 106.782 79.406 L 103.555 65.876 L 99.351 65.876 L 96.13 79.406 L 99.675 79.406 L 100.08 77.212 L 102.82 77.212 L 103.22 79.406 Z" fill="rgb(255,252,240)"></path></g></svg>
