<svg xmlns="http://www.w3.org/2000/svg" width="61" height="80" fill="none"><g><path d="M 50.009 39.956 L 55.31 39.678 C 55.178 38.5 54.845 37.353 54.323 36.289 L 49.92 36.089 C 50.087 37.467 50.109 38.767 50.02 39.967 Z M 30.234 24.856 C 28.681 24.833 26.041 25.544 24.777 25.744 C 25.343 26.133 27.361 27.422 28.748 28.311 L 33.273 25.6 C 32.385 25.156 31.409 24.878 30.234 24.867 Z M 26.252 18.811 C 26.707 19.022 27.273 19.144 27.894 19.1 C 28.792 19.033 29.358 18.5 29.668 18.089 C 28.06 17.733 27.173 17.933 26.241 18.811 Z M 36.811 34.911 L 40.582 34.711 C 40.715 33.033 40.937 31.922 41.059 31.344 C 39.217 32.178 37.942 33.3 36.811 34.911 Z M 30.689 65.322 L 28.626 65.322 L 28.626 71.522 L 30.788 71.522 C 33.195 71.522 34.615 70.6 34.615 68.3 C 34.615 66.167 33.528 65.322 30.689 65.322 Z M 33.495 61.422 C 33.495 59.589 32.33 59.211 30.622 59.211 L 28.637 59.211 L 28.637 63.911 L 30.167 63.911 C 31.942 63.911 33.506 63.378 33.506 61.422 Z M 13.664 59.222 L 11.302 59.222 L 11.302 64.856 L 13.154 64.856 C 15.305 64.856 16.647 63.756 16.647 61.889 C 16.647 59.8 15.627 59.222 13.653 59.222 Z M 55.321 41.889 L 49.82 41.578 C 49.576 43.122 49.166 44.467 48.722 45.567 L 54.634 44.822 C 55.011 43.9 55.255 43.011 55.321 41.889 Z M 52.826 34.033 C 51.702 32.74 50.278 31.744 48.678 31.133 C 49.077 32.2 49.366 33.222 49.587 34.211 Z" fill="rgb(255,252,240)"></path><path d="M 0 0 L 0 70.344 C 0 73 1.087 74.533 3.205 75.344 C 11.435 78.522 21.173 80.156 30.445 80.156 C 39.717 80.156 49.454 78.522 57.684 75.344 C 59.802 74.533 60.889 72.989 60.889 70.344 L 60.889 0 Z M 3.46 32.122 C 3.46 30.9 3.86 29.556 4.503 28.544 L 5.301 29.078 C 5.002 29.922 4.847 31.111 4.891 31.811 C 5.124 35.267 7.908 37.6 16.337 42.878 C 25.276 48.467 27.772 51.878 28.537 56.311 L 28.071 56.311 C 26.13 52.044 22.193 49.644 17.723 47.111 L 17.723 50.556 L 17.257 50.556 C 15.96 47.522 13.708 44.622 10.392 42.133 C 7.331 39.833 6.078 38.678 4.891 36.856 C 4.104 35.644 3.471 34.133 3.471 32.133 Z M 17.535 72.967 L 12.588 66.233 L 11.313 66.233 L 11.313 72.967 L 7.808 72.967 L 7.808 61.122 C 7.808 59.922 7.631 59.033 7.043 58.444 C 6.821 58.222 6.466 58.022 6.155 57.911 L 6.155 57.778 L 14.585 57.778 C 18.666 57.778 20.23 59.156 20.23 61.778 C 20.23 64 18.555 65.233 16.315 65.822 L 21.893 72.967 L 17.524 72.967 Z M 31.842 72.967 L 25.143 72.967 L 25.143 60.844 C 25.121 59.778 24.932 58.978 24.389 58.433 C 24.134 58.178 23.746 57.978 23.502 57.911 L 23.502 57.778 L 31.587 57.778 C 36.378 57.778 37.066 59.567 37.066 61.2 C 37.066 63.011 35.602 64.211 34.06 64.456 C 36.156 64.589 38.186 65.711 38.186 68.333 C 38.186 71.556 35.513 72.967 31.831 72.967 Z M 54.545 72.044 C 54.545 72.044 53.125 73.189 49.521 73.189 C 45.65 73.189 41.247 71.6 41.247 65.467 C 41.247 60.022 44.94 57.533 49.865 57.533 C 53.125 57.533 54.49 58.522 54.49 58.522 L 53.724 61.122 C 53.724 61.122 53.625 61.133 53.58 61.089 C 53.58 61.089 53.292 60.389 52.349 59.856 C 51.839 59.567 51.074 59.211 49.565 59.211 C 46.848 59.211 44.829 60.733 44.896 65.389 C 44.963 70.433 48.279 71.467 50.53 71.467 C 53.259 71.467 54.534 70.278 54.534 70.278 L 54.534 72.056 Z M 56.253 52.522 L 55.144 56.3 L 54.578 56.3 C 54.578 53.144 51.695 52.289 48.678 52.289 L 39.24 52.289 C 39.539 53.844 39.683 55.656 39.45 57.378 L 38.985 57.378 C 38.108 50.3 34.116 46.789 28.537 43.033 L 28.537 46.256 L 28.071 46.256 C 26.585 42.933 23.324 39.811 20.241 37.6 C 19.42 37.011 18.566 36.4 17.723 35.8 L 17.723 39.278 L 17.257 39.278 C 15.949 35.833 13.575 33.256 10.181 30.2 C 6.521 26.9 5.046 24.922 4.192 22.656 C 3.671 21.278 3.527 20.167 3.505 18.656 C 3.471 15.956 4.836 13.511 6.533 12.6 L 6.533 13.911 C 5.69 15.033 5.257 16.444 5.246 17.878 C 5.246 19.2 5.557 20.678 6.222 21.933 C 8.285 25.867 15.228 30.689 19.631 33.656 C 33.339 42.867 36.079 44.478 38.352 49.367 C 38.607 49.911 38.863 50.644 39.073 51.489 C 41.059 51.178 48.234 50.089 49.565 49.878 C 49.82 49.833 50.353 49.767 50.619 49.756 C 51.85 48.967 52.826 47.978 53.669 46.722 L 48.412 46.311 C 48.146 46.911 47.868 47.422 47.635 47.833 L 47.214 47.833 C 47.358 47.3 47.48 46.767 47.591 46.256 L 46.249 46.156 L 46.249 45.867 L 47.702 45.689 C 47.979 44.2 48.112 42.789 48.135 41.478 L 41.513 41.1 C 41.48 41.778 41.469 42.422 41.491 43.011 L 41.07 43.011 C 40.925 42.344 40.815 41.689 40.737 41.056 L 39.284 40.978 L 39.284 40.533 L 40.659 40.456 C 40.471 38.7 40.46 37.067 40.526 35.656 L 36.655 35.478 C 36.833 35.822 37.021 36.167 37.155 36.544 C 37.986 38.889 37.787 41.622 37.521 42.889 L 37.055 42.889 C 36.988 41.433 36.5 39.644 36.034 38.556 C 34.959 36.033 32.563 33.8 28.537 31.2 L 28.537 34.433 L 28.071 34.433 C 26.729 30.189 23.402 27.833 18.444 25.278 C 14.352 23.178 13.087 20.644 13.32 16.722 L 14.707 17.544 C 15.061 21.211 17.879 23.322 20.818 23.3 C 22.548 23.289 24.178 23.056 25.742 22.744 C 28.005 22.289 30.101 21.9 31.853 22.511 L 31.853 20.344 L 30.478 20.344 C 29.99 20.767 28.992 21.267 27.528 21.289 C 25.919 21.322 22.858 20.389 22.858 16.967 C 22.858 14 25.365 13.522 27.406 13.522 C 28.493 13.522 30.311 13.478 30.921 13.444 C 31.376 13.422 31.72 13.344 31.942 13.133 C 32.175 12.9 32.241 12.667 32.297 12.367 C 32.363 12 32.363 11.622 32.363 10.989 L 32.363 8.822 L 22.903 8.822 L 22.903 12.578 L 19.32 11.211 L 19.32 10.311 L 21.028 10.311 L 21.028 8.822 L 14.651 8.822 L 14.651 5.711 L 12.477 5.711 C 11.313 5.711 9.971 6.522 9.882 8.111 C 9.793 9.633 10.47 10.9 12.034 10.9 L 12.311 10.9 L 12.311 12.711 L 12.034 12.711 C 9.305 12.711 7.242 10.656 7.242 7.933 C 7.242 5.211 9.66 2.922 12.577 2.922 L 17.191 2.922 L 17.191 6.033 L 35.136 6.033 L 35.136 10.633 C 35.136 11.411 35.092 12.456 35.014 13.111 C 34.959 13.589 34.792 14.456 33.883 15.144 C 33.339 15.567 32.507 15.733 31.177 15.733 C 30.744 15.733 29.469 15.711 27.938 15.622 C 25.897 15.489 25.309 16.278 25.232 17.011 C 25.21 17.167 25.221 17.322 25.232 17.467 C 26.186 16.722 27.539 16.2 29.08 16.689 C 31.787 17.544 32.563 17.622 33.971 16.511 L 34.116 16.833 C 33.96 17.067 33.694 17.411 33.295 17.711 L 34.604 17.711 L 34.604 24.811 L 38.674 22.367 L 50.098 22.367 C 50.098 22.367 54.922 24.889 55.721 25.311 C 56.419 25.678 56.697 26.122 56.808 26.778 C 56.896 27.322 56.752 28.022 56.486 28.467 C 56.32 28.744 55.011 30.9 54.312 32.044 C 56.253 34.156 57.562 37.1 57.562 40.378 C 57.562 43.356 56.464 47.189 52.904 50.033 C 54.467 50.544 55.477 51.4 56.264 52.533 Z" fill="rgb(255,252,240)"></path><path d="M 44.974 30.456 C 44.597 30.456 44.231 30.5 43.865 30.544 C 43.332 31.889 42.889 33.233 42.534 34.611 L 47.203 34.356 C 46.648 32.444 45.994 31.111 45.639 30.478 C 45.417 30.467 45.195 30.456 44.974 30.456 Z" fill="rgb(255,252,240)"></path><path d="M 49.554 27.711 L 48.589 26.411 L 48.756 26.122 L 51.484 27.6 L 50.885 29.411 C 51.329 29.622 51.728 29.889 52.271 30.244 L 54.035 27.344 L 49.465 24.956 L 39.373 24.956 L 31.188 29.889 C 32.729 30.956 34.138 32.111 35.147 33.278 C 37.343 30.078 41.203 28.033 45.018 28.033 C 46.271 28.033 47.724 28.167 48.933 28.589 Z M 42.267 35.733 C 41.901 37.367 41.657 38.956 41.547 40.4 L 48.112 40.056 C 48.057 38.544 47.868 37.178 47.613 35.978 Z" fill="rgb(255,252,240)"></path></g></svg>
