<svg xmlns="http://www.w3.org/2000/svg" width="96" height="80" fill="none"><g transform="translate(-0.001 0)"><path d="M 50.881 40.282 L 50.881 39.006 L 49.265 39.006 C 46.842 39.006 45.431 39.529 45.431 41.153 C 45.431 42.253 46.093 42.976 47.62 42.976 C 49.464 42.976 50.881 41.965 50.881 40.282 Z M 53.767 53.9 C 53.767 54.406 54.071 54.735 54.774 54.735 C 55.617 54.735 56.266 54.271 56.266 53.5 L 56.266 52.918 L 55.529 52.918 C 54.417 52.918 53.773 53.159 53.773 53.9 Z M 61.622 27 L 61.254 27.935 L 61.997 27.935 Z M 55.933 27 L 55.564 27.935 L 56.301 27.935 Z" fill="rgb(255,252,240)"></path><path d="M 38.536 0 C 30.013 0 21.425 2.9 14.284 8.882 C -2.253 22.735 -4.805 47.835 8.588 64.941 C 21.981 82.047 46.245 84.682 62.781 70.829 C 69.923 64.847 74.46 56.771 76.227 48.141 C 76.227 48.141 77.439 42.506 79.728 31.1 C 85.183 3.953 96.013 0 96.013 0 Z M 66.475 33.418 L 66.475 26.447 L 70.631 26.447 L 70.631 30.435 L 73.804 30.435 L 73.804 33.418 L 70.631 33.418 L 70.631 40.724 C 70.631 41.941 71.234 42.518 72.305 42.518 C 72.938 42.518 73.4 42.429 73.892 42.229 L 73.892 45.476 C 73.312 45.682 72.475 45.882 71.351 45.882 C 68.179 45.882 66.475 44.259 66.475 41.1 Z M 65.62 30.2 L 65.62 34.112 C 62.536 34.082 60.744 35.1 60.744 37.994 L 60.744 45.588 L 56.565 45.588 L 56.565 30.429 L 60.744 30.429 L 60.744 33.329 C 61.699 31.3 63.168 30.229 65.62 30.2 Z M 63.367 26.447 C 63.338 26.676 63.32 27.882 63.32 27.882 C 63.32 28.176 63.384 28.4 63.507 28.524 C 63.63 28.659 63.8 28.694 64.017 28.694 C 64.233 28.694 64.391 28.594 64.514 28.465 C 64.637 28.341 64.696 27.924 64.696 27.629 C 64.696 27.629 64.672 26.659 64.666 26.453 L 64.924 26.453 C 64.912 26.665 64.924 27.782 64.924 27.782 C 64.924 28.071 64.865 28.459 64.584 28.676 C 64.397 28.818 64.145 28.871 63.876 28.871 C 63.607 28.871 63.338 28.8 63.15 28.659 C 62.94 28.494 62.893 28.3 62.893 27.988 C 62.893 27.988 62.875 26.682 62.863 26.453 L 63.373 26.453 Z M 61.658 26.441 L 61.892 26.441 C 61.985 26.718 62.577 28.341 62.852 28.829 L 62.272 28.829 C 62.243 28.706 62.061 28.141 62.061 28.141 L 61.166 28.141 C 61.166 28.141 60.961 28.694 60.943 28.829 L 60.692 28.829 C 60.856 28.506 61.552 26.729 61.658 26.441 Z M 59.603 25.547 C 59.667 25.476 59.726 25.424 59.925 25.394 C 60.024 25.382 60.434 25.447 60.522 25.353 C 60.487 25.794 60.247 25.994 60.141 26.047 C 60.06 26.088 59.937 26.129 59.831 26.129 C 59.726 26.129 59.661 26.088 59.597 26.029 C 59.527 25.965 59.509 25.882 59.509 25.788 C 59.509 25.694 59.539 25.618 59.603 25.553 Z M 59.304 26.435 L 60.522 26.435 L 60.522 26.682 C 60.346 26.665 59.82 26.647 59.755 26.659 C 59.743 26.706 59.738 27.394 59.755 27.471 C 59.825 27.494 60.37 27.471 60.522 27.453 L 60.522 27.688 C 60.387 27.676 59.849 27.659 59.755 27.676 C 59.743 27.724 59.738 28.535 59.755 28.641 C 59.808 28.653 60.34 28.641 60.522 28.6 L 60.522 28.835 L 59.304 28.835 L 59.304 26.441 Z M 58.444 26.376 C 58.579 26.376 58.842 26.424 59 26.488 L 59 26.853 C 58.966 26.797 58.922 26.747 58.871 26.706 C 58.749 26.597 58.59 26.54 58.426 26.547 C 58.145 26.547 57.952 26.629 57.771 26.829 C 57.613 27 57.542 27.394 57.542 27.624 C 57.542 28.194 57.8 28.7 58.426 28.724 C 58.643 28.729 58.865 28.629 59.006 28.529 L 59.006 28.735 C 58.865 28.806 58.608 28.835 58.38 28.847 C 57.905 28.865 57.039 28.765 57.039 27.659 C 57.039 26.553 57.847 26.371 58.45 26.371 Z M 55.968 26.441 L 56.202 26.441 C 56.296 26.718 56.887 28.341 57.162 28.829 L 56.582 28.829 C 56.553 28.706 56.372 28.141 56.372 28.141 L 55.476 28.141 C 55.476 28.141 55.271 28.694 55.254 28.829 L 55.002 28.829 C 55.166 28.506 55.862 26.729 55.968 26.441 Z M 53.597 26.441 L 54.077 26.441 C 54.001 27.341 54.077 28.647 54.077 28.647 C 54.077 28.647 54.586 28.635 54.873 28.588 L 54.873 28.824 L 53.597 28.824 L 53.597 26.435 Z M 52.444 26.376 C 52.62 26.376 52.906 26.429 53.012 26.465 C 53.105 26.494 53.205 26.529 53.299 26.571 L 53.299 26.994 C 53.24 26.912 53.135 26.8 53.059 26.753 C 52.918 26.665 52.655 26.553 52.456 26.553 C 52.122 26.553 51.935 26.659 51.771 26.835 C 51.613 27.006 51.542 27.4 51.542 27.629 C 51.542 28.2 51.771 28.694 52.397 28.718 C 52.672 28.724 52.731 28.676 52.865 28.618 C 52.865 28.618 52.877 27.894 52.836 27.782 L 53.299 27.782 L 53.299 28.7 C 53.199 28.729 53.088 28.776 53.029 28.788 C 52.819 28.835 52.584 28.853 52.374 28.865 C 51.9 28.882 51.033 28.782 51.033 27.676 C 51.033 26.571 51.847 26.388 52.444 26.388 Z M 9.859 45.906 C 5.79 45.906 3.425 44.112 3.285 40.835 L 7.178 40.835 C 7.353 42.2 8.015 42.982 9.829 42.982 C 11.445 42.982 12.194 42.376 12.194 41.329 C 12.194 40.282 11.299 39.853 9.139 39.535 C 5.129 38.929 3.572 37.765 3.572 34.812 C 3.572 31.653 6.458 30.088 9.542 30.088 C 12.891 30.088 15.396 31.306 15.771 34.782 L 11.937 34.782 C 11.708 33.535 11.012 32.959 9.572 32.959 C 8.22 32.959 7.435 33.594 7.435 34.524 C 7.435 35.453 8.155 35.859 10.35 36.176 C 14.132 36.729 16.204 37.682 16.204 40.929 C 16.204 44.176 13.839 45.912 9.859 45.912 Z M 40.321 45.588 L 36.171 45.588 L 36.171 36.341 C 36.171 34.4 35.304 33.529 33.806 33.529 C 32.19 33.529 30.891 34.571 30.891 36.629 L 30.891 45.582 L 26.74 45.582 L 26.74 36.335 C 26.74 34.394 25.845 33.524 24.376 33.524 C 22.76 33.524 21.46 34.565 21.46 36.624 L 21.46 45.576 L 17.281 45.576 L 17.281 30.418 L 21.46 30.418 L 21.46 32.735 C 22.21 31.318 23.825 30.071 26.073 30.071 C 28.063 30.071 29.562 30.912 30.282 32.706 C 31.494 30.882 33.455 30.071 35.357 30.071 C 38.155 30.071 40.315 31.841 40.315 35.865 L 40.315 45.576 Z M 41.334 41.388 C 41.334 37.853 44.565 36.518 49.178 36.518 L 50.881 36.518 L 50.881 35.912 C 50.881 34.118 50.331 33.129 48.428 33.129 C 46.783 33.129 46.034 33.971 45.864 35.276 L 41.913 35.276 C 42.171 31.682 44.998 30.088 48.692 30.088 C 52.385 30.088 55.008 31.594 55.008 35.712 L 55.008 45.594 L 50.94 45.594 L 50.94 43.771 C 50.073 44.988 48.75 45.918 46.385 45.918 C 43.646 45.918 41.34 44.582 41.34 41.394 Z M 48.487 55.929 L 47.404 51.571 L 46.233 55.929 L 44.477 55.929 L 42.54 48.982 L 44.442 48.982 L 45.525 53.459 L 46.707 48.982 L 48.259 48.982 L 49.33 53.459 L 50.489 48.982 L 52.233 48.982 L 50.22 55.929 Z M 58.151 55.929 L 56.29 55.929 L 56.29 55.094 C 55.892 55.653 55.283 56.076 54.2 56.076 C 52.941 56.076 51.888 55.465 51.888 54.006 C 51.888 52.382 53.369 51.776 55.482 51.776 L 56.26 51.776 L 56.26 51.5 C 56.26 50.676 56.009 50.224 55.137 50.224 C 54.381 50.224 54.042 50.612 53.96 51.206 L 52.151 51.206 C 52.268 49.559 53.568 48.829 55.26 48.829 C 56.951 48.829 58.151 49.518 58.151 51.406 L 58.151 55.935 Z M 62.237 55.876 C 61.974 55.971 61.587 56.065 61.072 56.065 C 59.62 56.065 58.836 55.324 58.836 53.871 L 58.836 47.159 L 60.739 47.159 L 60.739 48.982 L 62.19 48.982 L 62.19 50.353 L 60.739 50.353 L 60.739 53.7 C 60.739 54.259 61.014 54.524 61.505 54.524 C 61.798 54.524 62.009 54.482 62.231 54.388 L 62.231 55.876 Z M 69.209 52.888 L 64.227 52.888 C 64.28 54.041 64.9 54.706 65.948 54.706 C 66.832 54.706 67.271 54.318 67.388 53.735 L 69.197 53.735 C 68.975 55.235 67.78 56.071 65.896 56.071 C 63.806 56.071 62.29 54.753 62.29 52.535 L 62.29 52.429 C 62.29 50.235 63.835 48.818 65.843 48.818 C 67.628 48.818 69.215 49.865 69.215 52.353 L 69.215 52.882 Z M 73.892 50.671 C 72.475 50.659 71.656 51.124 71.656 52.453 L 71.656 55.935 L 69.741 55.935 L 69.741 48.988 L 71.656 48.988 L 71.656 50.318 C 72.095 49.388 72.768 48.894 73.892 48.882 L 73.892 50.676 Z" fill="rgb(255,252,240)"></path><path d="M 65.843 50.153 C 64.982 50.153 64.403 50.724 64.257 51.706 L 67.347 51.706 C 67.283 50.659 66.75 50.153 65.843 50.153 Z" fill="rgb(255,252,240)"></path></g></svg>
