<svg xmlns="http://www.w3.org/2000/svg" width="251" height="80" fill="none"><g transform="translate(0 -0.002)"><path d="M 224.317 45.067 C 223.525 49.46 219.14 55.345 211.646 55.374 C 211.646 55.374 211.66 67.352 211.646 69.71 C 224.845 69.21 233.879 59.988 235.883 51.181 C 236.995 43.874 239.662 37.36 249.431 35.695 C 250.315 35.552 250.793 35.538 250.793 35.538 L 250.793 20.888 C 250.793 20.888 250.451 20.824 249.424 20.917 C 235.876 21.538 226.684 31.924 224.31 45.067 M 178.859 21.567 L 194.119 57.831 L 181.376 80.052 L 196.4 80.052 L 226.492 21.688 L 212.715 21.688 L 202.041 42.774 L 193.241 21.567 Z" fill="currentColor"></path><path d="M 169.903 51.167 L 168.962 51.167 C 168.962 51.167 167.421 54.338 164.369 55.824 C 159.749 58.081 155.263 56.267 154.8 55.695 C 154.508 55.474 154.693 55.26 154.843 55.167 C 155.092 55.024 156.711 54.031 156.711 54.031 C 156.711 54.031 180.777 38.952 181.782 38.317 C 181.005 33.802 172.292 19.638 157.381 21.324 C 139.547 23.345 136.096 39.488 136.11 45.888 C 136.125 53.402 141.751 69.574 159.991 69.638 C 175.778 69.695 181.954 54.274 181.954 51.16 L 169.903 51.16 Z M 153.196 35.974 C 156.882 33.367 161.959 33.438 164.833 35.638 C 163.35 36.495 148.603 45.945 148.603 45.945 C 147.962 42.302 150.201 38.095 153.196 35.981 M 20.508 34.838 C 18.561 46.71 10.104 54.774 0 54.06 C 0 57.645 0.021 66.974 0 70.988 C 23.125 71.688 33.528 52.295 35.397 41.438 C 37.265 30.588 43.112 19.874 57.78 16.617 C 58.571 16.452 60.005 16.452 60.005 16.452 L 60.005 0.031 C 60.005 0.031 59.498 -0.062 57.965 0.074 C 38.841 1.795 23.617 15.81 20.501 34.838" fill="currentColor"></path><path d="M 63.898 55.46 C 58.949 55.46 54.899 51.281 54.757 46.024 C 54.757 40.731 57.894 35.802 63.898 35.767 C 69.324 35.738 73.011 41.01 73.011 45.731 C 73.011 51.131 68.947 55.467 63.898 55.467 M 63.435 22.052 C 51.327 22.052 41.294 32.388 41.044 45.238 C 40.795 58.088 41.044 45.26 41.044 45.267 C 41.044 45.424 41.03 45.581 41.03 45.731 L 41.066 45.731 C 41.672 59.31 51.512 69.417 63.442 69.417 C 75.371 69.417 85.647 58.817 85.647 45.731 C 85.647 32.645 75.706 22.052 63.442 22.052 M 111.353 55.467 C 106.397 55.467 102.375 51.245 102.233 45.988 C 102.375 40.781 104.707 35.917 111.353 35.917 C 116.786 35.917 120.487 40.974 120.487 45.695 C 120.487 51.095 116.394 55.474 111.353 55.474 M 110.911 22.01 C 107.666 22.01 104.571 22.76 101.769 24.095 L 101.769 6.045 L 88.627 6.045 L 88.627 43.195 C 88.634 43.867 88.634 45.417 88.634 45.574 L 88.62 45.688 C 89.069 59.288 98.981 69.367 110.903 69.367 C 122.826 69.367 133.116 58.76 133.116 45.681 C 133.116 32.602 123.168 21.995 110.903 21.995" fill="currentColor"></path></g></svg>
