<svg xmlns="http://www.w3.org/2000/svg" width="176" height="80" fill="none"><g><path d="M 41.737 20.281 L 36.487 28.933 L 41.944 28.933 Z M 90.204 48.207 C 90.056 48.207 89.923 48.207 89.775 48.222 L 87.749 54.785 C 89.982 54.252 91.476 52.933 92.052 51.067 C 92.585 49.304 91.919 48.193 90.218 48.193 Z M 106.532 56.148 L 110.466 56.148 L 110.333 50.207 Z M 69.749 47.911 C 66.836 47.911 64.099 50.178 62.842 54.267 C 61.334 59.185 62.606 62.193 65.697 62.193 C 68.788 62.193 71.376 59.911 72.648 55.793 C 74.157 50.919 72.87 47.896 69.749 47.896 Z" fill="rgb(255,252,240)"></path><path d="M 168.058 0 L 7.425 0 C 3.328 0 0 3.333 0 7.437 L 0 71.97 C 0 76.074 3.328 79.422 7.425 79.422 L 168.043 79.422 C 172.14 79.422 175.468 76.089 175.468 71.97 L 175.468 7.437 C 175.468 3.333 172.14 0 168.043 0 Z M 117.89 24.281 C 119.014 20.37 122.83 17.585 127.874 17.585 C 129.752 17.585 131.379 17.956 133.05 18.667 L 131.926 22.533 C 130.373 21.541 129.042 20.963 127.829 20.963 C 126.069 20.963 124.664 21.985 124.309 23.215 C 123.762 25.126 125.892 25.793 129.042 27.97 C 131.127 29.437 131.719 31.437 130.906 34.222 C 129.663 38.533 125.404 41.526 120.168 41.526 C 118.009 41.526 116.042 41.081 114.03 40.296 L 114.326 35.407 C 116.397 37.037 118.29 37.956 120.553 37.956 C 122.638 37.956 124.206 36.83 124.635 35.407 C 125.256 33.23 123.17 32.622 120.597 30.948 C 118.038 29.319 117.121 26.978 117.92 24.252 Z M 102.139 18.119 L 114.962 18.119 L 113.587 22.919 C 112.803 21.837 112.063 21.585 110.836 21.585 L 108.602 21.585 L 106.946 27.333 L 111.146 27.333 L 109.874 31.748 C 109.564 31.007 108.883 30.593 107.848 30.593 L 106.014 30.593 L 104.003 37.526 C 104.757 37.704 105.526 37.837 106.339 37.837 C 108.528 37.837 110.333 37.422 112.315 36.133 L 109.682 41.17 L 95.484 41.17 C 97.066 39.941 97.451 38.726 97.924 37.081 L 102.243 22.163 C 102.731 20.489 103.071 19.304 102.154 18.119 Z M 76.286 29.615 C 78.283 22.711 84.746 17.556 92.067 17.556 C 93.591 17.556 95.129 17.793 96.77 18.267 L 95.853 22.919 C 94.271 21.837 92.792 21.244 91.062 21.244 C 87.482 21.244 84.421 24 83.045 28.8 C 81.374 34.578 82.957 38.015 87.63 38.015 C 89.834 38.015 92.2 37.304 94.996 35.97 L 92.23 40.652 C 89.775 41.348 87.527 41.719 85.501 41.719 C 77.721 41.719 74.245 36.681 76.286 29.6 Z M 54.175 29.6 C 56.172 22.696 62.635 17.541 69.956 17.541 C 71.48 17.541 73.018 17.763 74.659 18.252 L 73.728 22.904 C 72.145 21.822 70.666 21.23 68.936 21.23 C 65.357 21.23 62.295 23.985 60.92 28.785 C 59.248 34.563 60.831 38 65.519 38 C 67.708 38 70.075 37.289 72.885 35.956 L 70.104 40.637 C 67.634 41.333 65.401 41.704 63.36 41.704 C 55.581 41.704 52.12 36.667 54.146 29.585 Z M 27.08 36.993 L 38.764 18.178 C 39.208 17.437 39.77 16.726 40.036 15.822 C 40.317 14.874 40.066 14.133 39.519 13.141 L 48.94 13.141 L 49.842 36.133 C 49.931 38.119 50.448 39.896 51.321 41.185 L 39.77 41.185 C 40.983 40.104 41.693 39.407 42.033 38.296 C 42.196 37.719 42.27 37.215 42.24 36.889 L 42.063 32.874 L 34.046 32.874 L 31.68 36.711 C 31.295 37.378 30.97 37.926 30.837 38.415 C 30.556 39.407 30.719 40.311 31.295 41.185 L 23.472 41.185 C 24.906 39.852 26.119 38.533 27.08 37.007 Z M 39.252 48.993 C 37.892 48.163 36.738 47.674 35.658 47.674 C 34.12 47.674 32.863 48.533 32.553 49.556 C 32.065 51.156 33.943 51.719 36.679 53.541 C 38.513 54.756 39.016 56.43 38.306 58.756 C 37.197 62.37 33.44 64.859 28.855 64.859 C 26.947 64.859 25.217 64.489 23.472 63.837 L 23.738 59.748 C 25.557 61.111 27.228 61.881 29.21 61.881 C 31.029 61.881 32.419 60.948 32.789 59.748 C 33.351 57.926 31.532 57.422 29.254 56.03 C 27.006 54.667 26.237 52.711 26.932 50.444 C 27.938 47.17 31.295 44.844 35.703 44.844 C 37.359 44.844 38.794 45.156 40.258 45.748 L 39.267 48.993 Z M 54.22 48.593 C 53.968 48.593 53.584 48.622 53.037 48.637 L 49.206 61.126 C 48.777 62.489 48.481 63.511 49.265 64.533 L 41.663 64.533 C 43.053 63.511 43.394 62.489 43.823 61.126 L 47.668 48.637 C 47.357 48.593 47.032 48.593 46.692 48.593 C 45.42 48.593 44.089 48.933 42.491 49.615 L 44.961 45.289 L 59.056 45.289 L 56.705 49.689 C 56.35 48.919 55.581 48.578 54.249 48.578 Z M 72.959 62.281 C 70.43 64.059 67.531 65.022 64.662 65.022 C 58.287 65.022 55.107 60.785 56.926 54.904 C 57.74 52.267 59.781 49.556 62.621 47.585 C 65.135 45.822 68.048 44.859 70.888 44.859 C 77.322 44.859 80.487 49.037 78.668 54.933 C 77.854 57.585 75.769 60.326 72.973 62.296 Z M 94.227 61.096 C 94.463 62 94.981 63.081 95.779 64.311 L 92.481 64.622 C 92.215 64.637 91.964 64.652 91.712 64.652 C 89.583 64.652 88.769 63.6 88.266 61.185 L 87.275 56.311 L 85.782 61.156 C 85.367 62.519 85.086 63.541 85.841 64.563 L 78.239 64.563 C 79.629 63.541 79.969 62.519 80.398 61.156 L 84.229 48.696 C 84.657 47.304 84.968 46.311 84.169 45.319 L 91.653 45.319 C 96.608 45.319 98.59 46.993 97.525 50.459 C 96.874 52.533 95.291 54.015 92.555 55.141 L 94.212 61.096 Z M 108.869 64.548 C 109.741 63.822 110.259 63.333 110.495 62.563 C 110.614 62.178 110.658 61.837 110.643 61.615 L 110.54 58.844 L 104.742 58.844 L 103.027 61.496 C 102.731 61.941 102.524 62.311 102.405 62.652 C 102.198 63.333 102.317 63.97 102.731 64.563 L 97.081 64.563 C 98.131 63.659 99.004 62.741 99.699 61.689 L 108.173 48.77 C 108.514 48.267 108.913 47.778 109.105 47.156 C 109.312 46.504 109.105 45.985 108.735 45.319 L 115.539 45.319 L 116.116 61.111 C 116.16 62.474 116.53 63.689 117.166 64.578 L 108.839 64.578 Z M 126.764 65.022 C 119.931 65.022 116.855 60.815 118.674 54.904 C 120.449 49.141 125.995 44.859 132.917 44.859 C 134.278 44.859 135.535 45.022 136.748 45.393 L 135.875 49.319 C 134.485 48.444 133.213 47.926 131.689 47.926 C 128.376 47.926 125.552 50.281 124.25 54.519 C 122.86 59.007 124.117 61.852 127.297 61.852 C 127.681 61.852 128.095 61.822 128.554 61.733 L 129.722 57.926 C 130.151 56.533 130.462 55.541 129.663 54.548 L 135.638 54.548 L 132.68 64.133 C 130.521 64.711 128.554 65.022 126.764 65.022 Z M 150.369 49.304 C 149.674 48.4 149.038 48.207 147.958 48.207 L 146.006 48.207 L 144.527 53.007 L 148.21 53.007 L 147.086 56.696 C 146.82 56.089 146.213 55.733 145.311 55.733 L 143.699 55.733 L 141.909 61.541 C 142.575 61.674 143.255 61.778 143.965 61.778 C 145.888 61.778 147.47 61.437 149.215 60.356 L 146.893 64.563 L 134.426 64.563 C 135.816 63.541 136.156 62.519 136.585 61.156 L 140.415 48.696 C 140.844 47.304 141.155 46.311 140.356 45.319 L 151.611 45.319 L 150.369 49.319 Z M 150.473 22.548 C 148.92 21.556 147.603 20.978 146.376 20.978 C 144.631 20.978 143.211 22 142.856 23.23 C 142.294 25.141 144.438 25.807 147.574 27.985 C 149.674 29.437 150.251 31.452 149.452 34.237 C 148.21 38.548 143.935 41.541 138.715 41.541 C 136.555 41.541 134.588 41.096 132.577 40.311 L 132.858 35.422 C 134.943 37.052 136.836 37.97 139.084 37.97 C 141.155 37.97 142.737 36.844 143.152 35.422 C 143.773 33.244 141.702 32.637 139.114 30.963 C 136.555 29.333 135.653 26.993 136.437 24.267 C 137.561 20.356 141.377 17.57 146.405 17.57 C 148.284 17.57 149.911 17.941 151.582 18.652 L 150.458 22.519 Z" fill="rgb(255,252,240)"></path></g></svg>
