<svg xmlns="http://www.w3.org/2000/svg" width="112" height="80" fill="none"><path d="M 74.224 2.607 C 69.122 0.966 62.761 0 55.876 0 C 48.99 0 42.629 0.966 37.527 2.607 C 23.935 6.966 14.601 16.014 14.601 26.469 C 14.601 41.172 33.075 53.103 55.876 53.103 C 78.677 53.103 97.136 41.172 97.136 26.469 C 97.136 16.014 87.802 6.966 74.224 2.607 M 55.876 41.641 C 52.474 41.641 49.695 34.966 49.529 26.579 C 51.575 26.759 53.691 26.855 55.876 26.855 C 58.06 26.855 60.176 26.759 62.222 26.579 C 62.056 34.966 59.277 41.641 55.876 41.641 M 49.958 20.028 C 50.884 14.138 53.179 9.972 55.876 9.972 C 58.572 9.972 60.853 14.138 61.78 20.028 C 59.885 20.193 57.908 20.29 55.876 20.29 C 53.843 20.29 51.852 20.193 49.958 20.028 M 65.389 19.586 C 64.006 10.345 60.273 3.724 55.862 3.724 C 51.451 3.724 47.718 10.345 46.335 19.586 C 37.956 18.276 32.093 15.31 32.093 11.848 C 32.093 7.186 42.74 3.407 55.862 3.407 C 68.984 3.407 79.631 7.186 79.631 11.848 C 79.631 15.31 73.768 18.276 65.389 19.586 M 20.616 25.49 C 20.616 20.979 22.359 16.759 25.387 13.117 C 25.359 13.366 25.331 13.628 25.331 13.876 C 25.331 19.545 33.877 24.372 45.782 26.138 C 45.782 26.566 45.768 26.993 45.768 27.434 C 45.768 37.986 48.699 46.91 52.751 50 C 34.734 48.897 20.616 38.359 20.616 25.49 M 58.973 50 C 63.024 46.924 65.956 37.986 65.956 27.434 C 65.956 27.007 65.956 26.566 65.942 26.138 C 77.847 24.372 86.392 19.545 86.392 13.876 C 86.392 13.628 86.378 13.366 86.337 13.117 C 89.365 16.745 91.107 20.979 91.107 25.49 C 91.107 38.345 76.976 48.897 58.973 50 M 16.012 61.117 L 0 61.117 L 0 64.648 L 5.918 64.648 L 5.918 79.71 L 10.108 79.71 L 10.108 64.648 L 16.012 64.648 Z M 26.839 60.566 C 21.377 60.566 16.966 64.979 16.966 70.428 C 16.966 75.876 21.391 80.276 26.839 80.276 C 32.295 80.276 36.718 75.864 36.718 70.421 C 36.718 64.978 32.295 60.566 26.839 60.566 M 31.678 73.407 C 31.028 75.061 29.561 76.259 27.806 76.566 C 27.166 76.678 26.511 76.678 25.871 76.566 C 24.12 76.25 22.657 75.056 21.999 73.407 C 21.64 72.483 21.432 71.476 21.432 70.428 C 21.432 69.379 21.64 68.372 21.999 67.448 C 22.653 65.797 24.118 64.602 25.871 64.29 C 26.511 64.178 27.166 64.178 27.806 64.29 C 29.576 64.607 31.042 65.821 31.678 67.448 C 32.038 68.372 32.245 69.379 32.245 70.428 C 32.245 71.476 32.051 72.483 31.678 73.407 M 36.78 61.117 L 41.717 61.117 L 46.335 69.117 L 50.939 61.117 L 55.889 61.117 L 48.423 72.841 L 48.423 79.71 L 44.233 79.71 L 44.233 72.841 Z M 55.959 70.414 C 55.959 64.966 60.383 60.566 65.845 60.566 C 71.307 60.566 75.718 64.979 75.718 70.414 C 75.718 75.848 71.293 80.276 65.845 80.276 C 60.397 80.276 55.959 75.862 55.959 70.414 M 65.845 76.648 C 66.177 76.648 66.495 76.621 66.813 76.566 C 68.565 76.254 70.03 75.058 70.684 73.407 C 71.044 72.483 71.251 71.476 71.251 70.428 C 71.251 69.379 71.058 68.372 70.684 67.448 C 70.035 65.794 68.567 64.597 66.813 64.29 C 66.172 64.178 65.517 64.178 64.877 64.29 C 63.125 64.602 61.66 65.797 61.005 67.448 C 60.646 68.372 60.439 69.379 60.439 70.428 C 60.439 71.476 60.646 72.483 61.005 73.407 C 61.655 75.061 63.122 76.259 64.877 76.566 C 65.195 76.621 65.513 76.648 65.845 76.648 M 105.543 75.614 L 97.606 75.614 L 96.085 79.71 L 91.425 79.71 L 98.975 61.117 L 104.188 61.117 L 111.737 79.71 L 107.078 79.71 Z M 104.326 72.359 L 101.574 65.021 L 98.823 72.359 L 104.312 72.359 Z M 92.656 61.117 L 76.63 61.117 L 76.63 64.648 L 82.548 64.648 L 82.548 79.71 L 86.738 79.71 L 86.738 64.648 L 92.656 64.648 Z" fill="currentColor"></path></svg>
